<svg width="60" height="60" viewBox="0 0 60 60" fill="none" xmlns="http://www.w3.org/2000/svg">
<path d="M60 0H0V60H60V0Z" fill="#47515D"/>
<path opacity="0.5" d="M3.13818 3.14624V56.8539H56.8777V3.14624H3.13818ZM8.49063 56.5911H3.40103V51.4457H8.49063V56.5911ZM8.49063 51.3103H3.40103V46.165H8.49063V51.3103ZM8.49063 45.9021H3.40103V40.7567H8.49063V45.9021ZM8.49063 40.6213H3.40103V35.476H8.49063V40.6213ZM8.49063 35.2131H3.40103V30.0678H8.49063V35.2131ZM8.49063 29.9324H3.40103V24.787H8.49063V29.9324ZM8.49063 24.5242H3.40103V19.3788H8.49063V24.5242ZM8.49063 19.2434H3.40103V14.0981H8.49063V19.2434ZM8.49063 13.8352H3.40103V8.68985H8.49063V13.8352ZM8.49063 8.55444H3.40103V3.40908H8.49063V8.55444ZM13.8272 56.5911H8.62604V51.4457H13.8272V56.5911ZM13.8272 51.3103H8.62604V46.165H13.8272V51.3103ZM13.8272 45.9021H8.62604V40.7567H13.8272V45.9021ZM13.8272 40.6213H8.62604V35.476H13.8272V40.6213ZM13.8272 35.2131H8.62604V30.0678H13.8272V35.2131ZM13.8272 29.9324H8.62604V24.787H13.8272V29.9324ZM13.8272 24.5242H8.62604V19.3788H13.8272V24.5242ZM13.8272 19.2434H8.62604V14.0981H13.8272V19.2434ZM13.8272 13.8352H8.62604V8.68985H13.8272V13.8352ZM13.8272 8.55444H8.62604V3.40908H13.8272V8.55444ZM19.1796 56.5911H14.09V51.4457H19.1796V56.5911ZM19.1796 51.3103H14.09V46.165H19.1796V51.3103ZM19.1796 45.9021H14.09V40.7567H19.1796V45.9021ZM19.1796 40.6213H14.09V35.476H19.1796V40.6213ZM19.1796 35.2131H14.09V30.0678H19.1796V35.2131ZM19.1796 29.9324H14.09V24.787H19.1796V29.9324ZM19.1796 24.5242H14.09V19.3788H19.1796V24.5242ZM19.1796 19.2434H14.09V14.0981H19.1796V19.2434ZM19.1796 13.8352H14.09V8.68985H19.1796V13.8352ZM19.1796 8.55444H14.09V3.40908H19.1796V8.55444ZM24.5161 56.5911H19.315V51.4457H24.5161V56.5911ZM24.5161 51.3103H19.315V46.165H24.5161V51.3103ZM24.5161 45.9021H19.315V40.7567H24.5161V45.9021ZM24.5161 40.6213H19.315V35.476H24.5161V40.6213ZM24.5161 35.2131H19.315V30.0678H24.5161V35.2131ZM24.5161 29.9324H19.315V24.787H24.5161V29.9324ZM24.5161 24.5242H19.315V19.3788H24.5161V24.5242ZM24.5161 19.2434H19.315V14.0981H24.5161V19.2434ZM24.5161 13.8352H19.315V8.68985H24.5161V13.8352ZM24.5161 8.55444H19.315V3.40908H24.5161V8.55444ZM29.8686 56.5911H24.7869V51.4457H29.8686V56.5911ZM29.8686 51.3103H24.7869V46.165H29.8686V51.3103ZM29.8686 45.9021H24.7869V40.7567H29.8686V45.9021ZM29.8686 40.6213H24.7869V35.476H29.8686V40.6213ZM29.8686 35.2131H24.7869V30.0678H29.8686V35.2131ZM29.8686 29.9324H24.7869V24.787H29.8686V29.9324ZM29.8686 24.5242H24.7869V19.3788H29.8686V24.5242ZM29.8686 19.2434H24.7869V14.0981H29.8686V19.2434ZM29.8686 13.8352H24.7869V8.68985H29.8686V13.8352ZM29.8686 8.55444H24.7869V3.40908H29.8686V8.55444ZM35.2051 56.5911H30.004V51.4457H35.2051V56.5911ZM35.2051 51.3103H30.004V46.165H35.2051V51.3103ZM35.2051 45.9021H30.004V40.7567H35.2051V45.9021ZM35.2051 40.6213H30.004V35.476H35.2051V40.6213ZM35.2051 35.2131H30.004V30.0678H35.2051V35.2131ZM35.2051 29.9324H30.004V24.787H35.2051V29.9324ZM35.2051 24.5242H30.004V19.3788H35.2051V24.5242ZM35.2051 19.2434H30.004V14.0981H35.2051V19.2434ZM35.2051 13.8352H30.004V8.68985H35.2051V13.8352ZM35.2051 8.55444H30.004V3.40908H35.2051V8.55444ZM40.5575 56.5911H35.4679V51.4457H40.5575V56.5911ZM40.5575 51.3103H35.4679V46.165H40.5575V51.3103ZM40.5575 45.9021H35.4679V40.7567H40.5575V45.9021ZM40.5575 40.6213H35.4679V35.476H40.5575V40.6213ZM40.5575 35.2131H35.4679V30.0678H40.5575V35.2131ZM40.5575 29.9324H35.4679V24.787H40.5575V29.9324ZM40.5575 24.5242H35.4679V19.3788H40.5575V24.5242ZM40.5575 19.2434H35.4679V14.0981H40.5575V19.2434ZM40.5575 13.8352H35.4679V8.68985H40.5575V13.8352ZM40.5575 8.55444H35.4679V3.40908H40.5575V8.55444ZM46.1649 3.40908H51.2545V8.55444H46.1649V3.40908ZM46.1649 8.68985H51.2545V13.8352H46.1649V8.68985ZM46.1649 14.0981H51.2545V19.2434H46.1649V14.0981ZM46.1649 19.3788H51.2545V24.5242H46.1649V19.3788ZM46.1649 24.787H51.2545V29.9324H46.1649V24.787ZM46.1649 30.0678H51.2545V35.2131H46.1649V30.0678ZM46.1649 35.476H51.2545V40.6213H46.1649V35.476ZM46.1649 40.7567H51.2545V45.9021H46.1649V40.7567ZM46.1649 46.165H51.2545V51.3103H46.1649V46.165ZM45.8941 56.5911H40.6929V51.4457H45.8941V56.5911ZM45.8941 51.3103H40.6929V46.165H45.8941V51.3103ZM45.8941 45.9021H40.6929V40.7567H45.8941V45.9021ZM45.8941 40.6213H40.6929V35.476H45.8941V40.6213ZM45.8941 35.2131H40.6929V30.0678H45.8941V35.2131ZM45.8941 29.9324H40.6929V24.787H45.8941V29.9324ZM45.8941 24.5242H40.6929V19.3788H45.8941V24.5242ZM45.8941 19.2434H40.6929V14.0981H45.8941V19.2434ZM45.8941 13.8352H40.6929V8.68985H45.8941V13.8352ZM45.8941 8.55444H40.6929V3.40908H45.8941V8.55444ZM56.6149 56.5911H46.1569V51.4457H56.6149V56.5911ZM56.6149 51.3103H51.3819V46.165H56.6149V51.3103ZM56.6149 45.9021H51.3819V40.7567H56.6149V45.9021ZM56.6149 40.6213H51.3819V35.476H56.6149V40.6213ZM56.6149 35.2131H51.3819V30.0678H56.6149V35.2131ZM56.6149 29.9324H51.3819V24.787H56.6149V29.9324ZM56.6149 24.5242H51.3819V19.3788H56.6149V24.5242ZM56.6149 19.2434H51.3819V14.0981H56.6149V19.2434ZM56.6149 13.8352H51.3819V8.68985H56.6149V13.8352ZM56.6149 8.55444H51.3819V3.40908H56.6149V8.55444Z" fill="white"/>
<path d="M51.9554 7.82178H50.5138H9.35886H7.76587V9.42273V29.136V30.729V50.5139V52.1069H9.35886H13.9626V50.5139H9.35886V30.729H13.9626V29.136H9.35886V9.42273H23.8551V29.136H19.0602V30.729H23.8551V35.3407H25.456V25.4562H40.2151V23.8552H25.456V9.42273H50.5138V23.8552H44.0622V25.4562H50.5138V39.8887H23.6798V41.4896H39.8965V50.5139H25.456V45.7589H23.8551V50.5139H19.2513V52.1069H41.4895V51.5573V50.5139V41.4896H50.5138H51.9554H52.1147V7.82178H51.9554Z" fill="white"/>
<path d="M56.8856 56.854H45.902V51.2148H56.8856V56.854ZM46.1569 56.5991H56.6228V51.4777H46.1569V56.5991Z" fill="white"/>
<path d="M49.2792 51.3103H49.0164V56.6866H49.2792V51.3103Z" fill="white"/>
<path d="M55.4042 51.3103H55.1414V56.6866H55.4042V51.3103Z" fill="white"/>
<path d="M56.7105 52.8794H46.0135V53.1422H56.7105V52.8794Z" fill="white"/>
<path d="M56.7901 54.9343H45.894V55.1892H56.7901V54.9343Z" fill="white"/>
<path d="M3.67184 9.84473H3.13818V50.0279H3.67184V9.84473Z" fill="white"/>
<path d="M3.40901 8.55444C3.18599 9.15978 2.80367 9.90849 2.39746 10.3784L3.40901 10.012L4.42056 10.3784C4.01435 9.90849 3.63203 9.15978 3.40901 8.55444Z" fill="white"/>
<path d="M3.40901 51.3103C3.18599 50.705 2.80367 49.9563 2.39746 49.4863L3.40901 49.8527L4.42056 49.4863C4.01435 49.9563 3.63203 50.705 3.40901 51.3103Z" fill="white"/>
<path d="M51.3899 3.24177C50.7846 3.01876 50.0359 2.63644 49.5659 2.23022L49.8367 2.97893H10.1872L10.458 2.23022C9.99604 2.63644 9.23937 3.01876 8.63403 3.24177C9.23937 3.46479 9.98808 3.84711 10.458 4.25332L10.1872 3.50462H49.8447L49.5739 4.25332C50.0359 3.84711 50.7925 3.46479 51.3979 3.24177H51.3899Z" fill="white"/>
</svg>
