<svg width="25" height="25" viewBox="0 0 25 25" fill="none" xmlns="http://www.w3.org/2000/svg">
<path d="M4.75 12.5C4.75 8.729 4.75 6.843 5.922 5.672C7.094 4.501 8.979 4.5 12.75 4.5C16.521 4.5 18.407 4.5 19.578 5.672C20.749 6.844 20.75 8.729 20.75 12.5C20.75 16.271 20.75 18.157 19.578 19.328C18.406 20.499 16.521 20.5 12.75 20.5C8.979 20.5 7.093 20.5 5.922 19.328C4.751 18.156 4.75 16.271 4.75 12.5Z" stroke="#47515D" stroke-width="1.5" stroke-linecap="round" stroke-linejoin="round"/>
<path d="M8.25 15.5L10.092 9.974C10.1382 9.83609 10.2266 9.7162 10.3447 9.63126C10.4628 9.54632 10.6045 9.50062 10.75 9.50062C10.8955 9.50062 11.0372 9.54632 11.1553 9.63126C11.2734 9.7162 11.3618 9.83609 11.408 9.974L13.25 15.5M9.25 13.5H12.25M16.25 9.5V15.5M8.75 2.5V4.5M16.75 2.5V4.5M12.75 2.5V4.5M8.75 20.5V22.5M12.75 20.5V22.5M16.75 20.5V22.5M22.75 16.5H20.75M4.75 8.5H2.75M4.75 16.5H2.75M4.75 12.5H2.75M22.75 8.5H20.75M22.75 12.5H20.75" stroke="#47515D" stroke-width="1.5" stroke-linecap="round" stroke-linejoin="round"/>
</svg>
