<svg width="21" height="21" viewBox="0 0 21 21" fill="none" xmlns="http://www.w3.org/2000/svg">
<path d="M16.3548 10.5V15.5C16.3548 15.96 15.9815 16.3333 15.5215 16.3333C15.0615 16.3333 14.6882 15.96 14.6882 15.5V10.5C14.6882 10.04 15.0615 9.66667 15.5215 9.66667C15.9815 9.66667 16.3548 10.04 16.3548 10.5ZM10.1715 6.0975L12.7307 15.2883C12.8765 15.8133 12.4823 16.3333 11.9365 16.3333C11.5673 16.3333 11.244 16.0883 11.1432 15.7333L10.6073 13.8333H6.26898L5.73315 15.7333C5.63315 16.0883 5.30898 16.3333 4.93982 16.3333C4.39482 16.3333 3.99982 15.8133 4.14565 15.2883L6.72148 6.03167C6.83898 5.525 7.17232 5.09833 7.63648 4.86083C8.10982 4.6175 8.65315 4.6025 9.16898 4.81917C9.65815 5.02417 10.0332 5.5 10.1723 6.09833L10.1715 6.0975ZM10.1373 12.1667L8.52982 6.47083C8.50565 6.37583 8.37065 6.37583 8.34732 6.47083L6.73982 12.1667H10.1373ZM19.689 8.83333C19.229 8.83333 18.8557 9.20667 18.8557 9.66667V16.3333C18.8557 17.7117 17.734 18.8333 16.3557 18.8333H4.68815C3.30982 18.8333 2.18815 17.7117 2.18815 16.3333V4.66667C2.18815 3.28833 3.30982 2.16667 4.68815 2.16667H11.3548C11.8148 2.16667 12.1882 1.79333 12.1882 1.33333C12.1882 0.873333 11.8148 0.5 11.3548 0.5H4.68815C2.39065 0.5 0.521484 2.36917 0.521484 4.66667V16.3333C0.521484 18.6308 2.39065 20.5 4.68815 20.5H16.3548C18.6523 20.5 20.5215 18.6308 20.5215 16.3333V9.66667C20.5215 9.20667 20.1482 8.83333 19.6882 8.83333H19.689ZM13.9807 4.81667L15.5373 5.4725L16.1582 7.02667C16.2923 7.36333 16.6182 7.58333 16.9807 7.58333C17.3432 7.58333 17.6682 7.3625 17.8032 7.02667L18.4207 5.48167L19.9657 4.86417C20.3023 4.73 20.5223 4.40417 20.5223 4.04167C20.5223 3.67917 20.3015 3.35417 19.9657 3.21917L18.4207 2.60167L17.8032 1.05667C17.6673 0.720833 17.3415 0.5 16.9798 0.5C16.6182 0.5 16.2923 0.720833 16.1573 1.05667L15.5432 2.5925L14.0098 3.17333C13.6715 3.30167 13.4448 3.62333 13.4382 3.985C13.4315 4.3475 13.6465 4.67667 13.9798 4.8175L13.9807 4.81667Z" fill="#FB406C"/>
</svg>
