<?xml version="1.0" encoding="UTF-8"?>
<svg xmlns="http://www.w3.org/2000/svg" version="1.1" xmlns:xlink="http://www.w3.org/1999/xlink" viewBox="0 0 4000 9000">
  <defs>
    <linearGradient id="linear-gradient" x1="1565.5" y1="2325" x2="-1388" y2="5818.5" gradientTransform="translate(3886.7 -1824)" gradientUnits="userSpaceOnUse">
      <stop offset="0" stop-color="#fff"/>
      <stop offset="1" stop-color="#000"/>
    </linearGradient>
    <mask id="mask" x="141.6" y="2.7" width="3857.1" height="8997.1" maskUnits="userSpaceOnUse">
      <rect x="141.6" y="2.7" width="3857.1" height="8997.1" fill="url(#linear-gradient)"/>
    </mask>
    <clipPath id="clippath">
      <path d="M1969.3,2.7c-.4,125.1,6.3,263.8,21.2,417.4,56.4,580.3,157.3,1038.8,241.5,1421.3,200.8,912.5,306.5,1392.8-512.8,2063.8-479.6,392.8-655.1,856.3-659.9,1313.7-6.9,649.3,330,1286.2,628.5,1691,288,390.5-1.7,687.7-335,1029.6-257.5,264.1-541.1,555-603.5,936.1-7,42.7-11.7,84.1-14.4,124.2h-4.5c2.7-40.3,7.4-81.9,14.5-124.9,62.6-382.5,346.7-673.9,604.6-938.4,332-340.5,620.5-636.5,334.6-1024.1-298.9-405.3-636.2-1043.2-629.3-1693.5,4.9-458.5,180.7-923.2,661.5-1316.9,817.3-669.4,711.8-1148.7,511.3-2059.6-84.2-382.5-185.1-841.1-241.6-1421.8-14.9-153.7-21.6-292.5-21.3-417.8h4.5Z" fill="none"/>
    </clipPath>
    <linearGradient id="linear-gradient-2" x1="1214.4" y1="8682.7" x2="2085.1" y2="14.8" gradientUnits="userSpaceOnUse">
      <stop offset="0" stop-color="#b5854b"/>
      <stop offset="1" stop-color="#f2f2f2"/>
    </linearGradient>
    <clipPath id="clippath-1">
      <path d="M1985.9,2.7c3.7,128.3,15.2,269.9,36,426.7,69.3,521.2,164.7,945,245.4,1303.9,222.3,988,333.9,1484-512.9,2165.9-480.6,387-667.7,838.2-686.9,1285.9-26.7,625.6,274.3,1244.6,560.8,1672.8,289.7,433,14,750.6-301.5,1114.2-221.2,254.9-462.1,532.4-540.8,888-10.7,48.3-18.4,94.7-23.6,139.5h-4.5c5.3-45.1,13-91.8,23.8-140.4,78.9-356.7,320.2-634.7,541.7-889.9,314.4-362.3,589.1-678.7,301.2-1109.1-286.8-428.7-588.2-1048.6-561.5-1675.3,19.2-448.9,206.7-901.2,688.5-1289.1,844.7-680.2,733.3-1175.4,511.4-2161.7-80.8-358.9-176.1-782.7-245.5-1304.3-20.9-157-32.4-298.9-36.1-427.3h4.5Z" fill="none"/>
    </clipPath>
    <linearGradient id="linear-gradient-3" x1="1259" y1="8687.2" x2="2129.8" y2="19.3" xlink:href="#linear-gradient-2"/>
    <clipPath id="clippath-2">
      <path d="M2001.9,2.7c7.9,131.4,24.4,276.1,51.4,436.1,76.8,454.3,165.7,835.2,242.5,1163.8,252.3,1080.2,372.6,1595.3-506.2,2290.7-571.8,452.5-745.5,985.8-717.1,1503.4,28.5,517.7,259.3,1019.8,496.3,1409.4,293.1,481.7,31.9,820.9-267.6,1209.9-186.1,241.7-387.1,502.7-478.5,829-15.1,53.9-26.5,105.4-34.9,154.9h-4.6c8.4-49.8,19.9-101.7,35.1-156,91.7-327.1,292.9-588.4,479.3-830.4,298.6-387.8,558.9-725.9,267.4-1205.1-237.3-390.1-468.4-892.8-496.9-1411.3-28.5-518.8,145.6-1053.4,718.7-1506.9,876.7-693.7,756.6-1208,504.7-2286.4-76.8-328.7-165.7-709.7-242.5-1164.1-27.1-160.2-43.6-305.1-51.5-436.7h4.5Z" fill="none"/>
    </clipPath>
    <linearGradient id="linear-gradient-4" x1="1304.9" y1="8691.8" x2="2175.7" y2="23.9" xlink:href="#linear-gradient-2"/>
    <clipPath id="clippath-3">
      <path d="M2017.3,2.7c12.3,134.6,34.1,282.4,67.5,445.4,77.5,377.7,158.2,705.2,229.4,994.4,294.2,1194.6,426.8,1732.9-489.4,2445-567.7,441.2-760.7,951.9-754.7,1455.2,6,503.5,211,999.7,439.3,1411.5,299.2,539.7,51.9,901.9-235.4,1322.7-152.1,222.8-315.4,462-414.6,752.7-20.3,59.6-36.1,116.2-48.2,170.2h-4.6c12.1-54.4,28-111.5,48.5-171.6,99.3-291.2,262.9-530.7,415.1-753.7,286.5-419.7,533.1-780.9,235.2-1318.3-228.6-412.4-433.9-909.2-439.9-1413.5-6-504.5,187.5-1016.4,756.4-1458.6,913.9-710.3,781.6-1247.8,487.8-2440.6-71.2-289.1-151.9-616.6-229.4-994.5-33.5-163.3-55.4-311.4-67.6-446.2h4.5Z" fill="none"/>
    </clipPath>
    <linearGradient id="linear-gradient-5" x1="1352.4" y1="8696.6" x2="2223.1" y2="28.7" xlink:href="#linear-gradient-2"/>
    <clipPath id="clippath-4">
      <path d="M2032,2.7c16.8,137.8,44.1,288.7,84.2,454.7,70,289.4,138.7,549.8,201.1,786.1,353.3,1338.8,502.9,1905.5-457.3,2638-563.5,429.9-775.9,918-792.4,1407.1-16.6,489.2,162.7,979.6,382.4,1413.7,310.1,613,74.3,999.5-209.1,1464.2-118.8,194.7-246,403.2-344.7,647.8-26.4,65.4-47.3,127.1-63.7,185.6h-4.7c16.5-58.9,37.6-121.2,64.2-187.1,98.9-244.9,226.1-453.6,345-648.5,282.8-463.5,518-849.2,209-1460.1-219.9-434.7-399.4-925.7-382.8-1415.7,16.6-490.3,229.4-979.5,794.1-1410.3,957.8-730.7,808.5-1296.7,455.7-2633.5-62.3-236.2-131-496.5-201.1-786.1-40.3-166.3-67.6-317.6-84.4-455.7h4.5Z" fill="none"/>
    </clipPath>
    <linearGradient id="linear-gradient-6" x1="1402" y1="8701.6" x2="2272.8" y2="33.6" xlink:href="#linear-gradient-2"/>
    <clipPath id="clippath-5">
      <path d="M2046.1,2.7c21.4,141.1,54.4,295.1,101.5,464,52.2,187.2,102.3,361.5,149.3,525.3,437.6,1523.8,610.6,2126-401.7,2883.5-559.4,418.6-791,884.1-830.1,1358.9-39.1,475,114.5,959.5,325.4,1415.9,329.4,712.7,99.4,1123.6-199.1,1656.9-84.4,150.9-174.4,311.6-258.6,491.7-33.4,71.3-60.1,138.1-81.7,200.9h-4.8c21.7-63.4,48.7-130.7,82.3-202.7,84.3-180.2,174.3-341,258.8-491.9,297.9-532.2,527.4-942.3,198.9-1653.1-211.2-457-364.9-942.1-325.7-1418,39.2-476,271.3-942.5,831.9-1362,1009.9-755.7,837.2-1357.2,400.1-2879-47.2-164.2-97.4-339.1-149.3-525.3-47.2-169.3-80.3-323.7-101.8-465.1h4.6Z" fill="none"/>
    </clipPath>
    <linearGradient id="linear-gradient-7" x1="1454.5" y1="8706.9" x2="2325.3" y2="38.9" xlink:href="#linear-gradient-2"/>
    <clipPath id="clippath-6">
      <path d="M2059.6,2.7c26.2,144.4,65.1,301.6,119.5,473.3,20.6,65.3,40.9,129.1,60.7,191.5,560.4,1766.6,765.7,2413.5-309.3,3202-555.3,407.3-806.2,850.2-867.8,1310.8-61.6,460.7,66.2,939.3,268.4,1418,363.9,861.4,129.2,1288.9-234,1950.5-41.1,74.9-83.9,152.8-127.6,234.7-41.3,77.3-74.8,149.1-102.2,216.3h-4.8c27.6-67.7,61.3-140.2,103-218.2,43.7-81.9,86.5-159.8,127.6-234.7,362.6-660.5,596.8-1087.3,233.8-1946.8-202.4-479.3-330.4-958.6-268.7-1420.2,61.7-461.7,313.2-905.6,869.5-1313.7,1072.4-786.7,867.5-1432.8,307.7-3197.3-19.8-62.4-40-126.2-60.7-191.5-54.5-172.2-93.5-329.8-119.7-474.6h4.6Z" fill="none"/>
    </clipPath>
    <linearGradient id="linear-gradient-8" x1="1510.9" y1="8712.5" x2="2381.7" y2="44.6" xlink:href="#linear-gradient-2"/>
    <clipPath id="clippath-7">
      <path d="M2072.5,2.7c31.1,147.7,76.2,308.2,138,482.7,336.9,951.6,551.8,1597.5,544.5,2104.9-7.3,507.8-237,876.6-789.3,1273.4-551.1,396-821.4,816.3-905.5,1262.7-84.1,446.5,17.9,919.2,211.4,1420.2,193.8,501.6,246.8,858.7,191.7,1189.7-55.1,330.9-218.3,635.4-457.1,1032-50.3,83.5-91.4,160.3-125.5,231.6h-5c34.3-71.9,75.8-149.5,126.5-233.8,238.6-396.2,401.6-700.4,456.6-1030.5,55-330.2,2-686.6-191.5-1187.5-193.7-501.6-295.9-975.1-211.6-1422.4,84.3-447.4,355.1-868.6,907.2-1265.4,551-396,780.2-763.7,787.4-1270,7.3-506.7-207.5-1152.3-544.2-2103.4-61.9-175-107.1-335.9-138.3-484h4.6Z" fill="none"/>
    </clipPath>
    <linearGradient id="linear-gradient-9" x1="1397.1" y1="8701.1" x2="2267.9" y2="33.1" xlink:href="#linear-gradient-2"/>
    <clipPath id="clippath-8">
      <path d="M2084.9,2.7c36.2,151.1,87.6,314.8,157.1,492,371.4,947.2,585.1,1595,569.1,2102.5-16,507.9-262,875-810.1,1260.5-547,384.7-836.6,782.4-943.2,1214.5-106.6,432.2-30.3,899.1,154.4,1422.3,185,523.8,274.1,892.9,251.2,1228.8-22.9,336-157.7,638.6-420.4,1029.5-60.4,89.8-110.1,171.6-151.7,247h-5.1c41.9-76,92-158.6,153-249.3,262.3-390.2,396.9-692.3,419.7-1027.4,22.8-335.2-66.2-703.8-251-1227.1-185-523.9-261.4-991.6-154.6-1424.7,106.9-433.2,397-831.6,944.9-1217,546.9-384.6,792.3-750.8,808.3-1257.1,16-506.7-197.6-1154.1-568.9-2100.9-69.7-177.7-121.3-341.9-157.5-493.5h4.6Z" fill="none"/>
    </clipPath>
    <linearGradient id="linear-gradient-10" x1="1434.3" y1="8704.8" x2="2305.1" y2="36.9" xlink:href="#linear-gradient-2"/>
    <clipPath id="clippath-9">
      <path d="M2096.8,2.7c41.3,154.7,99.1,321.4,176.5,501.3,405.9,942.9,618.5,1592.6,593.8,2100.1-24.8,508-287.1,873.4-831,1247.6-542.9,373.4-851.8,748.5-980.9,1166.4-129.2,418-78.6,879,97.5,1424.4l10.6,32.7c344.9,1068.4,484.1,1499.5-83.6,2262.1-71.7,96.3-131.1,183.1-181.2,262.3h-5.3c50.4-79.9,110.3-167.5,182.8-264.9,566.4-760.8,427.4-1191.4,83-2258.3l-10.6-32.7c-176.3-546.2-226.9-1008.1-97.5-1427,129.4-418.9,438.9-794.7,982.6-1168.7,542.7-373.3,804.4-737.8,829.1-1244.3,24.7-506.8-187.8-1156-593.4-2098.3-77.7-180.5-135.6-347.8-177-503h4.7Z" fill="none"/>
    </clipPath>
    <linearGradient id="linear-gradient-11" x1="1469.9" y1="8708.4" x2="2340.7" y2="40.5" xlink:href="#linear-gradient-2"/>
    <clipPath id="clippath-10">
      <path d="M2108.3,2.7c46.6,158.3,110.8,328.1,196.5,510.6,440.4,938.5,651.9,1590.1,618.4,2097.8-33.5,508.1-312.1,871.9-851.8,1234.7-538.8,362.2-867,714.6-1018.6,1118.3-151.7,403.7-126.8,858.9,40.5,1426.6,54.5,184.9,108.3,351.2,157.5,503.4,253.6,783.8,385.9,1192.7-134.5,1828-84.4,103-154.6,194.7-214.1,277.7h-5.5c59.9-83.8,130.8-176.3,216-280.4,518.9-633.5,386.8-1041.7,133.7-1824.1-49.2-152.2-103.1-318.6-157.6-503.5-167.6-568.6-192.4-1024.6-40.4-1429.2,152-404.6,480.8-757.7,1020.3-1120.4,538.6-362,816.5-724.9,849.9-1231.4,33.4-506.9-177.9-1157.8-618-2095.7-85.9-183.1-150.4-353.6-197.1-512.4h4.7Z" fill="none"/>
    </clipPath>
    <linearGradient id="linear-gradient-12" x1="1503.6" y1="8711.8" x2="2374.4" y2="43.8" xlink:href="#linear-gradient-2"/>
    <clipPath id="clippath-11">
      <path d="M2119.2,2.7c52,161.9,122.9,334.9,217,520,474.9,934.2,685.3,1587.6,643.1,2095.4-42.2,508.1-337.1,870.3-872.7,1221.8-534.6,350.9-882.2,680.7-1056.4,1070.2-174.2,389.4-175.1,838.8-16.5,1428.7,79.7,296.3,169,545.9,247.5,765.4,234.7,655.8,373.2,1042.9-128.3,1602.6-98.5,109.9-180.7,206.4-250.8,293.1h-5.7c70.6-87.4,153.5-184.8,253.1-295.9,499.7-557.8,361.6-944,127.4-1598.3-78.6-219.6-167.9-469.3-247.6-765.7-158.9-590.9-157.9-1041.1,16.7-1431.5,174.6-390.3,522.6-720.7,1058-1072,534.4-350.7,828.6-711.9,870.7-1218.6,42.1-507-168.1-1159.7-642.6-2093.2-94.4-185.7-165.5-359.4-217.7-521.9h4.7Z" fill="none"/>
    </clipPath>
    <linearGradient id="linear-gradient-13" x1="1522.8" y1="8713.7" x2="2393.6" y2="45.8" xlink:href="#linear-gradient-2"/>
    <clipPath id="clippath-12">
      <path d="M2129.6,2.7c57.5,165.6,135.3,341.8,238,529.3,509.4,929.8,718.7,1585.1,667.7,2093-50.9,508.2-362.2,868.8-893.5,1208.9-530.5,339.6-897.4,646.8-1094.1,1022.1-196.7,375.2-223.3,818.6-73.4,1430.8,92.2,376.7,215.9,679.4,322,939.4,239.5,586.4,390.2,955.6-106.6,1465.2-114.1,117.1-209.8,218.3-291.6,308.5h-6c82.4-90.9,178.8-193.1,294.2-311.5,494.9-507.5,344.5-875.8,105.7-1460.6-106.2-260.1-229.9-563-322.2-940-150.2-613.2-123.4-1057.6,73.8-1433.7,197.1-376.1,564.5-683.7,1095.6-1023.7,530.2-339.4,840.8-699,891.6-1205.7,50.8-507-158.2-1161.5-667.2-2090.6-103.1-188.2-181.2-365.1-238.8-531.3h4.8Z" fill="none"/>
    </clipPath>
    <linearGradient id="linear-gradient-14" x1="1529.8" y1="8714.4" x2="2400.5" y2="46.5" xlink:href="#linear-gradient-2"/>
    <clipPath id="clippath-13">
      <path d="M2139.5,2.7c63.1,169.3,148,348.7,259.6,538.6,543.9,925.5,752,1582.6,692.4,2090.7-59.7,508.3-387.2,867.2-914.4,1196-526.4,328.3-912.6,612.9-1131.9,973.9-219.2,360.9-271.5,798.5-130.3,1432.9,98,440.2,257.4,781.5,392,1069.6,253.9,543.6,419.6,898.3-80.4,1371.4-131.6,124.5-242.1,230.4-336.8,323.9h-6.3c95.4-94.2,206.9-201.1,339.9-327,497.8-471,332.6-824.6,79.5-1366.6-134.7-288.3-294.2-629.8-392.3-1070.5-141.4-635.6-88.9-1074.1,130.9-1436,219.7-361.8,606.4-646.8,1133.3-975.4,526.1-328.1,852.9-686,912.4-1192.8,59.5-507.1-148.4-1163.4-691.8-2088-112.1-190.7-197.2-370.8-260.4-540.8h4.8Z" fill="none"/>
    </clipPath>
    <linearGradient id="linear-gradient-15" x1="1536.7" y1="8715.1" x2="2407.5" y2="47.2" xlink:href="#linear-gradient-2"/>
    <clipPath id="clippath-14">
      <path d="M2148.8,2.7c68.8,173.2,160.9,355.8,281.6,547.9,578.5,921.1,785.4,1580.1,717.1,2088.3-68.4,508.4-412.2,865.6-935.3,1183.1-522.2,317-927.8,579-1169.6,925.8-241.7,346.7-319.8,778.4-187.3,1435,99.7,494,296.8,865.9,460.9,1175.5,272.9,514.8,454.5,857.4-53.2,1302.2-42.7,37.4-89.8,78.6-134.6,117.7-94,82.1-177.4,155.1-252.4,221.6h-6.6c75.9-67.3,160.5-141.3,256-224.8,40.5-35.4,83-72.6,134.5-117.7,505.1-442.5,324.1-784,52.2-1297-164.2-309.8-361.5-682-461.3-1176.6-132.7-657.9-54.4-1090.6,188-1438.3,242.3-347.5,648.2-609.8,1170.9-927.1,521.9-316.8,865-673.1,933.2-1180,68.2-507.2-138.6-1165.3-716.5-2085.5-121.2-193-213.6-376.3-282.6-550.2h4.8Z" fill="none"/>
    </clipPath>
    <linearGradient id="linear-gradient-16" x1="1543.6" y1="8715.8" x2="2414.4" y2="47.9" xlink:href="#linear-gradient-2"/>
    <clipPath id="clippath-15">
      <path d="M2157.7,2.7c74.6,177,174.2,362.9,304.1,557.3,613,916.8,818.8,1577.6,741.7,2085.9-77.1,508.5-437.3,864.1-956.1,1170.2l-88.3,52c-984.9,579.8-1603.7,944.2-1363.3,2262.8,98.8,541.6,335.6,939.5,530.1,1266.3,294,494,491.8,826.3-26.2,1247.8-128.8,104.8-242.3,195.2-343.3,275.7-34.5,27.4-67.4,53.7-99.1,79h-7.1c32.9-26.3,67.3-53.7,103.3-82.4,101.2-80.6,214.9-171.1,343.3-275.6,515.2-419.2,318.1-750.3,25.2-1242.4-194.8-327.2-431.8-725.4-530.7-1267.7-240.9-1321.6,378.9-1686.5,1365.4-2267.3l88.3-52c517.8-305.5,877.1-660.2,954-1167.1,76.9-507.2-128.7-1167.1-741-2082.9-130.6-195.3-230.5-381.9-305.3-559.6h4.9Z" fill="none"/>
    </clipPath>
    <linearGradient id="linear-gradient-17" x1="1492.7" y1="8710.7" x2="2363.5" y2="42.7" xlink:href="#linear-gradient-2"/>
    <clipPath id="clippath-16">
      <path d="M2166.1,2.7c80.5,181,187.7,370,327.2,566.6,647.5,912.4,852.2,1575.1,766.4,2083.5-85.9,508.6-462.3,862.5-977,1157.3-86.7,49.7-171.6,97.2-254.1,143.4-893,500.1-1502.9,841.7-1292.2,2125.4,96,585.2,374.3,1005.9,600.2,1347.4,316.3,478.2,530.1,801.4-.1,1203.3-177.8,134.8-330.7,245.2-463.4,341l-40.3,29.1h-7.5l45.1-32.6c132.6-95.7,285.3-206,463.4-340.9,527-399.5,314.1-721.4-.9-1197.6-226.1-341.8-504.7-763-600.9-1349.1-211.2-1286.6,399.8-1628.8,1294.4-2129.8,82.4-46.1,167.1-93.6,254-143.4,513.6-294.2,889.2-647.2,974.8-1154.3,85.6-507.3-118.9-1169-765.6-2080.4-140.1-197.5-247.7-387.4-328.4-569.1h4.9Z" fill="none"/>
    </clipPath>
    <linearGradient id="linear-gradient-18" x1="1510.1" y1="8712.4" x2="2380.8" y2="44.5" xlink:href="#linear-gradient-2"/>
    <clipPath id="clippath-17">
      <path d="M2174.1,2.7c86.4,185,201.4,377.3,350.6,576,682,908.1,885.6,1572.6,791,2081.1-94.6,508.7-487.3,861-997.8,1144.4-129.6,72-255.7,137.9-377.1,201.4-836.9,437.7-1449.6,758.2-1263.8,2021.4,92,626.1,413.5,1067.6,671.3,1421.8,339,465.7,568.4,780.7,24.9,1165.5-213,150.8-394.7,269.7-550.8,371.9l-20.8,13.6h-8l26.3-17.2c155.9-102,337.4-220.9,550.6-371.8,539.9-382.2,311.6-695.8-25.9-1159.5-258.1-354.5-579.9-796.6-672.1-1423.7-186.2-1266.2,427.7-1587.3,1266.2-2025.8,121.7-63.7,248.2-129.8,377-201.3,509.4-282.9,901.4-634.3,995.7-1141.4,94.3-507.4-109-1170.8-790.2-2077.8-149.9-199.6-265.2-392.7-351.9-578.5h4.9Z" fill="none"/>
    </clipPath>
    <linearGradient id="linear-gradient-19" x1="1525.1" y1="8713.9" x2="2395.8" y2="46" xlink:href="#linear-gradient-2"/>
    <clipPath id="clippath-18">
      <path d="M2181.9,2.7c92.5,189.1,215.1,384.6,374.2,585.3,716.5,903.7,918.9,1570.2,815.7,2078.7-103.3,508.8-512.4,859.4-1018.7,1131.5-161.2,86.6-320,163-472.2,236.3-803.5,386.6-1427.6,686.9-1263.4,1940.5,87.1,665,453.3,1125.9,743.7,1491.4,71.4,89.8,138.1,173.9,195.2,253.9,231.9,325.4,300.9,582.2-146.4,878.5-241.2,159.8-446.8,282.1-622.5,386.7l-23.9,14.2h-8.6l30.1-17.9c175.8-104.6,381.4-226.9,622.3-386.6,444.1-294.3,375.6-549.3,145.2-872.5-56.8-79.8-123.7-163.9-195.1-253.7-290.7-365.8-657.3-827.3-744.5-1493.5-164.6-1256.7,460.7-1557.5,1265.9-1944.9,152.4-73.3,311.2-149.7,472-236.2,505.3-271.5,913.5-621.3,1016.5-1128.5,103-507.4-99.2-1172.7-814.8-2075.3-159.9-201.6-282.9-398-375.6-587.9h5Z" fill="none"/>
    </clipPath>
    <linearGradient id="linear-gradient-20" x1="1538.4" y1="8715.3" x2="2409.1" y2="47.3" xlink:href="#linear-gradient-2"/>
    <clipPath id="clippath-19">
      <path d="M2189.2,2.7c98.6,193.2,229,392,398.3,594.7,751.1,899.3,952.3,1567.6,840.3,2076.4-112,508.9-537.4,857.9-1039.6,1118.6-185.1,96.1-370.2,177-548,254.7-785.4,343.2-1427.3,623.7-1282.3,1876,81.4,702.5,493.9,1181.8,817.2,1557.4,110.8,128.7,211.1,245.3,284.1,354.5,180.6,270.2,194.3,495.6-212.7,748.4-264.8,164.5-491.8,287.7-685.6,392.8l-43.4,23.5h-9.2l50.3-27.3c193.8-105.1,420.7-228.2,685.4-392.7,403.9-250.9,390.4-474.5,211.3-742.5-72.9-109.1-173.1-225.5-283.8-354.1-323.7-376-736.6-855.8-818.2-1559.7-145.4-1255.4,497.9-1536.5,1284.9-1880.5,177.7-77.7,362.8-158.5,547.8-254.6,501.1-260.2,925.6-608.3,1037.3-1115.7,111.7-507.5-89.4-1174.6-839.4-2072.7-170.1-203.6-300.9-403.3-399.8-597.4h5Z" fill="none"/>
    </clipPath>
    <linearGradient id="linear-gradient-21" x1="1550.5" y1="8716.5" x2="2421.3" y2="48.6" xlink:href="#linear-gradient-2"/>
    <clipPath id="clippath-20">
      <path d="M2196.2,2.7c104.8,197.4,243.1,399.4,422.7,604,785.6,895,985.7,1565.1,865,2074-120.8,509-562.4,856.3-1060.4,1105.7-203.1,101.7-410.2,183-609.9,261.3-777.9,305.1-1442.8,565.9-1315.1,1823.5,75,739,535.3,1235.8,891.9,1620.6,140.7,151.9,265.3,286.3,343.8,411.5,148.9,237.3,132.8,440.8-250.9,664.8-285.8,166.8-532.5,289.2-743.3,393.7-26.1,12.9-51.6,25.6-76.6,38.1h-9.8c27.5-13.7,55.6-27.6,84.4-41.9,210.7-104.5,457.3-226.8,743-393.6,380.7-222.2,396.8-423.9,249.4-658.8-78.4-124.8-202.8-259.1-343.3-410.8-357-385.3-817.8-882.7-893-1623.1-128-1260.8,538.4-1522.2,1317.9-1827.9,199.6-78.3,406.6-159.5,609.5-261.1,497-248.9,937.7-595.4,1058.1-1102.8,120.4-507.6-79.5-1176.4-864-2070.2-180.4-205.6-319.2-408.5-424.4-606.8h5.1Z" fill="none"/>
    </clipPath>
    <linearGradient id="linear-gradient-22" x1="1561.7" y1="8717.6" x2="2432.5" y2="49.7" xlink:href="#linear-gradient-2"/>
    <clipPath id="clippath-21">
      <path d="M2202.7,2.7c111.1,201.7,257.5,407,447.6,613.4,820.1,890.6,1019.1,1562.6,889.6,2071.6-129.5,509.1-587.5,854.7-1081.3,1092.8-216.6,104.4-442.3,182.9-661.2,259.1-777.9,270.7-1470.2,511.6-1358.5,1779.6,68.2,774.8,577.6,1288.4,967.7,1681.8,166.4,167.7,311.1,313.7,390.9,448.9,126.3,213.9,90.5,400.5-277.7,602.7-304.9,167.4-570.4,288.1-797.3,391.3-42.2,19.2-83,37.7-122.5,55.9h-10.5c42.2-19.4,85.8-39.2,131-59.8,226.9-103.2,492.2-223.8,797-391.2,365.3-200.6,401-385.3,276-596.8-79.5-134.7-224.1-280.5-390.3-448-390.6-393.9-900.6-908.1-969-1684.4-111.9-1271.4,581.9-1512.8,1361.5-1784,218.8-76.1,444.4-154.6,660.7-258.9,492.8-237.6,949.8-582.4,1078.9-1090,129.1-507.6-69.7-1178.3-888.6-2067.7-191-207.4-337.9-413.6-449.3-616.2h5.1Z" fill="none"/>
    </clipPath>
    <linearGradient id="linear-gradient-23" x1="1572.3" y1="8718.7" x2="2443.1" y2="50.7" xlink:href="#linear-gradient-2"/>
  </defs>
  <!-- Generator: Adobe Illustrator 28.7.0, SVG Export Plug-In . SVG Version: 1.2.0 Build 23)  -->
  <g>
    <g id="Layer_1">
      <g>
        <rect y="2.7" width="3998.7" height="8997.1" fill="#f4f4f4"/>
        <g mask="url(#mask)">
          <path d="M141.6,2.7s3857.1,2094.7,3857.1,8997.1V2.7H141.6Z" fill="#dbdcdc" fill-rule="evenodd"/>
        </g>
        <g clip-path="url(#clippath)">
          <rect x="730.3" y="2.7" width="1808.2" height="8997.1" fill="url(#linear-gradient-2)"/>
        </g>
        <g clip-path="url(#clippath-1)">
          <rect x="757.8" y="2.7" width="1843.5" height="8997.1" fill="url(#linear-gradient-3)"/>
        </g>
        <g clip-path="url(#clippath-2)">
          <rect x="783.3" y="2.7" width="1885.1" height="8997.1" fill="url(#linear-gradient-4)"/>
        </g>
        <g clip-path="url(#clippath-3)">
          <rect x="806.7" y="2.7" width="1934.4" height="8997.1" fill="url(#linear-gradient-5)"/>
        </g>
        <g clip-path="url(#clippath-4)">
          <rect x="827.7" y="2.7" width="1992.4" height="8997.1" fill="url(#linear-gradient-6)"/>
        </g>
        <g clip-path="url(#clippath-5)">
          <rect x="846.4" y="2.7" width="2061.2" height="8997.1" fill="url(#linear-gradient-7)"/>
        </g>
        <g clip-path="url(#clippath-6)">
          <rect x="862.5" y="2.7" width="2142.9" height="8997.1" fill="url(#linear-gradient-8)"/>
        </g>
        <g clip-path="url(#clippath-7)">
          <rect x="875.8" y="2.7" width="1886.5" height="8997.1" fill="url(#linear-gradient-9)"/>
        </g>
        <g clip-path="url(#clippath-8)">
          <rect x="886.1" y="2.7" width="1941" height="8997.1" fill="url(#linear-gradient-10)"/>
        </g>
        <g clip-path="url(#clippath-9)">
          <rect x="893.2" y="2.7" width="1998.7" height="8997.1" fill="url(#linear-gradient-11)"/>
        </g>
        <g clip-path="url(#clippath-10)">
          <rect x="896.5" y="2.7" width="2060.2" height="8997.1" fill="url(#linear-gradient-12)"/>
        </g>
        <g clip-path="url(#clippath-11)">
          <rect x="870.5" y="2.7" width="2150.9" height="8997.1" fill="url(#linear-gradient-13)"/>
        </g>
        <g clip-path="url(#clippath-12)">
          <rect x="819.7" y="2.7" width="2266.5" height="8997.1" fill="url(#linear-gradient-14)"/>
        </g>
        <g clip-path="url(#clippath-13)">
          <rect x="769" y="2.7" width="2382.1" height="8997.1" fill="url(#linear-gradient-15)"/>
        </g>
        <g clip-path="url(#clippath-14)">
          <rect x="718.2" y="2.7" width="2497.7" height="8997.1" fill="url(#linear-gradient-16)"/>
        </g>
        <g clip-path="url(#clippath-15)">
          <rect x="550.5" y="2.7" width="2730.2" height="8997.1" fill="url(#linear-gradient-17)"/>
        </g>
        <g clip-path="url(#clippath-16)">
          <rect x="520.8" y="2.7" width="2824.7" height="8997.1" fill="url(#linear-gradient-18)"/>
        </g>
        <g clip-path="url(#clippath-17)">
          <rect x="486.3" y="2.7" width="2924" height="8997.1" fill="url(#linear-gradient-19)"/>
        </g>
        <g clip-path="url(#clippath-18)">
          <rect x="448.4" y="2.7" width="3026.6" height="8997.1" fill="url(#linear-gradient-20)"/>
        </g>
        <g clip-path="url(#clippath-19)">
          <rect x="408.1" y="2.7" width="3131.8" height="8997.1" fill="url(#linear-gradient-21)"/>
        </g>
        <g clip-path="url(#clippath-20)">
          <rect x="366" y="2.7" width="3238.7" height="8997.1" fill="url(#linear-gradient-22)"/>
        </g>
        <g clip-path="url(#clippath-21)">
          <rect x="322.6" y="2.7" width="3346.9" height="8997.1" fill="url(#linear-gradient-23)"/>
        </g>
      </g>
    </g>
  </g>
</svg>