<svg width="76" height="60" viewBox="0 0 76 60" fill="none" xmlns="http://www.w3.org/2000/svg">
<path d="M74.6542 32.5839C77.562 27.0508 75.2939 22.0826 69.578 20.6038C68.0161 14.9129 63.0064 12.7196 57.5232 15.7187C51.9901 12.8027 47.0136 15.0873 45.5431 20.7949C39.8605 22.3568 37.6672 27.3665 40.6581 32.8497C37.742 38.3828 40.0183 43.3427 45.7259 44.8298C47.2961 50.5207 52.3058 52.714 57.7974 49.7149C63.3221 52.6227 68.2986 50.3546 69.7691 44.6387C75.46 43.0768 77.6533 38.0671 74.6542 32.5839Z" fill="#ADB93D"/>
<path d="M53.9923 60H58.8441L57.0164 36.7212L60.3728 32.4426L60.3395 32.4176L56.9333 35.6744L56.277 27.4163L56.0194 27.4246L54.9477 44.6054L50.2869 38.8563L50.2205 38.8978L54.8231 46.5744L53.9923 60Z" fill="#79563E"/>
<path d="M15.2274 17.9785L8.29028 22.7472V6.71289H15.2274V17.9785Z" fill="#F4F4F4"/>
<path d="M16.4403 3.48096H7.06897V6.79583H16.4403V3.48096Z" fill="#B5854B"/>
<path d="M51.9901 57.2915H8.31519V22.7471L30.0903 4.31177L51.9901 22.7471V57.2915Z" fill="#47565D"/>
<path d="M30.1568 6.22265L54.5739 29.2357H59.9408L30.1568 0L0.372803 29.2357H5.73974L30.1568 6.22265Z" fill="#B5854B"/>
<path d="M21.716 35.0347H11.3643V51.0524H21.716V35.0347Z" fill="#1B1B1B"/>
<path d="M21.3088 35.4834H11.7712V50.5956H21.3088V35.4834Z" fill="#F9FAF9"/>
<path d="M16.7643 35.4834H16.2991V50.5956H16.7643V35.4834Z" fill="#1B1B1B"/>
<path d="M21.5083 40.6177H11.5138V41.1162H21.5083V40.6177Z" fill="#1B1B1B"/>
<path d="M21.5083 45.8848H11.5138V46.3749H21.5083V45.8848Z" fill="#1B1B1B"/>
<path d="M21.9236 50.3379H11.1399V51.6921H21.9236V50.3379Z" fill="#1B1B1B"/>
<path d="M49.4977 35.0347H39.146V51.0524H49.4977V35.0347Z" fill="#1B1B1B"/>
<path d="M49.0905 35.4834H39.553V50.5956H49.0905V35.4834Z" fill="#F9FAF9"/>
<path d="M44.5544 35.4834H44.0891V50.5956H44.5544V35.4834Z" fill="#1B1B1B"/>
<path d="M49.2983 40.6177H39.3038V41.1162H49.2983V40.6177Z" fill="#1B1B1B"/>
<path d="M49.2983 45.8848H39.3038V46.3749H49.2983V45.8848Z" fill="#1B1B1B"/>
<path d="M49.7136 50.3379H38.9299V51.6921H49.7136V50.3379Z" fill="#1B1B1B"/>
<path d="M53.4357 57.2915H6.86963V59.9999H53.4357V57.2915Z" fill="#1B1B1B"/>
<path d="M35.7065 37.876H24.5988V57.2916H35.7065V37.876Z" fill="#B5854B"/>
<path d="M34.8341 39.1055H25.4711V47.8205H34.8341V39.1055Z" fill="#47565D"/>
<path d="M34.3689 39.5293H25.928V47.3969H34.3689V39.5293Z" fill="#F9FAF9"/>
<path d="M34.8341 49.5984H33.8538V51.3181H34.8341V49.5984Z" fill="#47565D"/>
<path d="M37.1438 20.612C37.1438 16.7488 34.0117 13.625 30.1568 13.625C26.3019 13.625 23.1698 16.7571 23.1698 20.612C23.1698 24.4669 26.3019 27.599 30.1568 27.599C34.0117 27.599 37.1438 24.4669 37.1438 20.612Z" fill="#1B1B1B"/>
<path d="M36.637 20.612C36.637 17.0313 33.7376 14.1318 30.1568 14.1318C26.5761 14.1318 23.6683 17.0313 23.6683 20.612C23.6683 24.1928 26.5678 27.0922 30.1568 27.0922C33.7459 27.0922 36.637 24.1928 36.637 20.612Z" fill="#F9FAF9"/>
<path d="M30.3396 13.8909H29.9657V27.3913H30.3396V13.8909Z" fill="#1B1B1B"/>
<path d="M36.9029 20.4541H23.4025V20.828H36.9029V20.4541Z" fill="#1B1B1B"/>
<path d="M67.2851 42.8359H64.693V60.0002H67.2851V42.8359Z" fill="#A3A3A3"/>
<path d="M48.3512 42.8359H45.7592V60.0002H48.3512V42.8359Z" fill="#A3A3A3"/>
<path d="M71.007 31.0884H41.7963V46.0593H71.007V31.0884Z" fill="#B5854B"/>
<path d="M69.8272 32.3762H42.9843V44.7634H69.8272V32.3762Z" fill="#F9FAF9"/>
<path d="M45.2358 36.3638L46.4487 35.1426H48.966L50.3452 35.6161L49.8965 36.9454L48.6919 36.53H47.0469L46.7229 36.854V37.0949L46.8475 37.3525L49.9048 38.6735L50.3036 39.4295V40.7255L49.0823 41.9468H46.5567L45.1776 41.4732L45.6262 40.144L46.8309 40.5594H48.4925L48.8165 40.2354V39.9944L48.6919 39.7369L45.6345 38.4159L45.2358 37.6599V36.3638Z" fill="#B5854B"/>
<path d="M54.2914 35.1426L56.4847 41.6643L55.089 42.1379L54.5739 40.6175H52.4138L51.9403 42.1379L50.5446 41.6643L52.7379 35.1426H54.2914ZM53.66 37.7347L53.5354 37.0285H53.4939L53.3693 37.7347L52.8292 39.3215H54.1917L53.6517 37.7347H53.66Z" fill="#B5854B"/>
<path d="M57.0663 35.1426H58.5534V40.5594H61.6938V41.9468H57.0663V35.1426Z" fill="#B5854B"/>
<path d="M62.3667 35.1426H67.0939V36.53H63.8538V37.7014H66.6868V39.0889H63.8538V40.5511H67.0939V41.9385H62.3667V35.1343V35.1426Z" fill="#B5854B"/>
<path d="M71.8627 59.9999C72.8679 57.2998 71.5968 54.9902 68.7555 54.2923C67.8749 51.2433 65.1748 50.0885 62.2421 51.7418C59.2512 50.2048 56.5927 51.4593 55.8283 54.5332C53.1449 55.3059 51.9402 57.4909 52.8042 59.9999H71.8627Z" fill="#909B48"/>
</svg>
