<svg width="22" height="17" viewBox="0 0 22 17" fill="none" xmlns="http://www.w3.org/2000/svg">
<path d="M20.6758 9.62381V2.34155C20.6751 1.87553 20.4898 1.42877 20.1604 1.09913C19.831 0.769491 19.3843 0.583848 18.9183 0.58287H3.08407C2.61763 0.583196 2.17036 0.768546 1.84042 1.09826C1.51048 1.42797 1.32482 1.87511 1.32416 2.34155V9.62257C1.05768 9.77585 0.836173 9.99648 0.681839 10.2624C0.527505 10.5282 0.445769 10.83 0.444824 11.1374L0.444824 12.8985C0.445476 13.3648 0.630974 13.8117 0.960649 14.1414C1.29032 14.4711 1.73727 14.6566 2.2035 14.6572V15.9775C2.2035 16.0941 2.24982 16.2059 2.33228 16.2884C2.41473 16.3708 2.52656 16.4171 2.64317 16.4171H3.52374C3.60567 16.4168 3.68587 16.3935 3.75529 16.35C3.82471 16.3065 3.88058 16.2444 3.91661 16.1708L4.67403 14.6548H17.3247L18.0821 16.1708C18.1181 16.2444 18.174 16.3065 18.2434 16.35C18.3128 16.3935 18.393 16.4168 18.475 16.4171H19.3543C19.4709 16.4171 19.5827 16.3708 19.6652 16.2884C19.7477 16.2059 19.794 16.0941 19.794 15.9775V14.656C20.2604 14.656 20.7078 14.471 21.038 14.1415C21.3682 13.812 21.5541 13.365 21.5551 12.8985V11.1374C21.554 10.8302 21.4721 10.5287 21.3178 10.263C21.1635 9.99741 20.9421 9.77698 20.6758 9.62381ZM2.20227 2.34278C2.2026 2.10967 2.29535 1.88619 2.46018 1.72135C2.62502 1.55651 2.84849 1.46376 3.08161 1.46344H18.9183C19.1514 1.46376 19.3749 1.55651 19.5398 1.72135C19.7046 1.88619 19.7973 2.10967 19.7977 2.34278V9.37995H18.672C18.725 9.31591 18.7841 9.2568 18.8334 9.19275C18.8853 9.11904 18.9132 9.03108 18.9132 8.9409C18.9132 8.85073 18.8853 8.76276 18.8334 8.68905C18.635 8.37467 18.3632 8.11322 18.0414 7.92721C17.7196 7.7412 17.3574 7.63621 16.986 7.62127H13.8061C13.4347 7.63621 13.0725 7.7412 12.7507 7.92721C12.4289 8.11322 12.1571 8.37467 11.9587 8.68905C11.9068 8.76276 11.8789 8.85073 11.8789 8.9409C11.8789 9.03108 11.9068 9.11904 11.9587 9.19275C12.008 9.26295 12.0671 9.31591 12.1201 9.37995H9.87863C9.93159 9.31591 9.9907 9.2568 10.04 9.19275C10.0919 9.11904 10.1198 9.03108 10.1198 8.9409C10.1198 8.85073 10.0919 8.76276 10.04 8.68905C9.84164 8.37467 9.56986 8.11322 9.24804 7.92721C8.92623 7.7412 8.56402 7.63621 8.19261 7.62127H5.01024C4.63884 7.63621 4.27663 7.7412 3.95481 7.92721C3.633 8.11322 3.36122 8.37467 3.16289 8.68905C3.11095 8.76276 3.08306 8.85073 3.08306 8.9409C3.08306 9.03108 3.11095 9.11904 3.16289 9.19275C3.21216 9.26295 3.27127 9.31591 3.32423 9.37995H2.2035L2.20227 2.34278ZM17.9084 8.93906C17.7931 9.07141 17.6518 9.17871 17.4934 9.25433C17.3349 9.32995 17.1627 9.37228 16.9872 9.37872H13.8061C13.6307 9.37228 13.4584 9.32995 13.2999 9.25433C13.1415 9.17871 13.0002 9.07141 12.8849 8.93906C13.0002 8.80671 13.1415 8.6994 13.2999 8.62378C13.4584 8.54816 13.6307 8.50583 13.8061 8.49939H16.9897C17.1649 8.50599 17.337 8.54841 17.4952 8.62403C17.6534 8.69964 17.7945 8.80686 17.9097 8.93906H17.9084ZM9.11259 8.93906C8.99724 9.07141 8.85598 9.17871 8.69754 9.25433C8.53909 9.32995 8.36683 9.37228 8.19138 9.37872H5.01024C4.8348 9.37228 4.66253 9.32995 4.50409 9.25433C4.34565 9.17871 4.20439 9.07141 4.08903 8.93906C4.20439 8.80671 4.34565 8.6994 4.50409 8.62378C4.66253 8.54816 4.8348 8.50583 5.01024 8.49939H8.19385C8.36908 8.50599 8.54111 8.54841 8.69933 8.62403C8.85755 8.69964 8.99861 8.80686 9.11383 8.93906H9.11259ZM3.25033 15.5353H3.08407V14.656H3.69247L3.25033 15.5353ZM18.9146 15.5353H18.7459L18.3062 14.656H18.9183L18.9146 15.5353ZM20.6758 12.8985C20.6755 13.1317 20.5827 13.3551 20.4179 13.52C20.253 13.6848 20.0296 13.7776 19.7964 13.7779H2.2035C1.97039 13.7776 1.74691 13.6848 1.58208 13.52C1.41724 13.3551 1.32449 13.1317 1.32416 12.8985V11.1374C1.32449 10.9043 1.41724 10.6808 1.58208 10.516C1.74691 10.3511 1.97039 10.2584 2.2035 10.2581H19.7952C20.0283 10.2584 20.2518 10.3511 20.4166 10.516C20.5815 10.6808 20.6742 10.9043 20.6745 11.1374L20.6758 12.8985Z" fill="#B5854B" stroke="#B5854B" stroke-width="0.1"/>
</svg>
