<?xml version="1.0" encoding="utf-8"?>
<!-- Generator: Adobe Illustrator 28.1.0, SVG Export Plug-In . SVG Version: 6.00 Build 0)  -->
<svg version="1.1" id="Layer_1" xmlns="http://www.w3.org/2000/svg" xmlns:xlink="http://www.w3.org/1999/xlink" x="0px" y="0px"
     viewBox="0 0 20 20" style="enable-background:new 0 0 20 20;" xml:space="preserve">
    <path fill="#FFFFFF" d="M10,0C7.2,0,4.7,1.1,2.9,2.9S0,7.2,0,10s1.1,5.3,2.9,7.1S7.2,20,10,20s5.3-1.1,7.1-2.9S20,12.8,20,10
    C20,4.5,15.5,0,10,0z M16,6.3l-8.6,8.6c-0.2,0.2-0.4,0.3-0.7,0.3H6.6c-0.3,0-0.6-0.2-0.7-0.5l-2.6-3.9c-0.2-0.2-0.1-0.5,0.1-0.7
    C3.7,10,4,10,4.2,10.3l2.6,3.9l8.6-8.6c0.2-0.2,0.5-0.2,0.7,0C16.2,5.8,16.2,6.2,16,6.3z"/>
</svg>
