<?xml version="1.0" encoding="UTF-8"?>
<svg id="Layer_2" xmlns="http://www.w3.org/2000/svg" viewBox="0 0 287.04 287.04">
  <g id="Layer_1-2" data-name="Layer_1">
    <g>
      <path fill="#b5854b" d="M143.52,11c35.4,0,68.68,13.78,93.71,38.81s38.81,58.31,38.81,93.71-13.78,68.68-38.81,93.71c-25.03,25.03-58.31,38.81-93.71,38.81s-68.68-13.78-93.71-38.81c-25.03-25.03-38.81-58.31-38.81-93.71s13.78-68.68,38.81-93.71c25.03-25.03,58.31-38.81,93.71-38.81M143.52,0C64.26,0,0,64.26,0,143.52s64.26,143.52,143.52,143.52,143.52-64.26,143.52-143.52S222.79,0,143.52,0h0Z"/>
      <path fill="#b5854b" d="M207.64,90.57h0c1.05,0,2.62.22,4.13,1.25,3.09,2.12,3.42,5.23,3.42,6.47,0,2.1-.8,4.05-2.25,5.5l-90.12,90.12c-1.46,1.46-3.42,2.26-5.51,2.26s-4.05-.8-5.5-2.25c-.22-.22-.41-.44-.57-.63-.28-.36-.59-.71-.91-1.04l-39.27-39.27c-1.45-1.45-2.26-3.4-2.26-5.5s.8-4.04,2.26-5.5c1.46-1.46,3.41-2.26,5.5-2.26s4.05.81,5.5,2.26l27.55,27.55c2.15,2.15,4.96,3.22,7.78,3.22s5.63-1.07,7.78-3.22l76.45-76.45c1.61-1.61,3.8-2.53,6.02-2.53M207.64,79.57c-5.02,0-10.05,2-13.8,5.75l-76.45,76.45-27.55-27.55c-3.66-3.65-8.47-5.48-13.28-5.48s-9.63,1.83-13.28,5.48c-7.31,7.3-7.31,19.26,0,26.56l39.26,39.26c.45.58.95,1.14,1.48,1.67,3.65,3.65,8.46,5.47,13.28,5.47s9.63-1.82,13.28-5.47l90.13-90.13c3.65-3.65,5.47-8.47,5.47-13.28,0-5.89-2.72-11.79-8.19-15.54-3.14-2.15-6.75-3.18-10.35-3.18h0Z"/>
    </g>
  </g>
</svg>
