<svg width="24" height="24" viewBox="0 0 24 24" fill="none" xmlns="http://www.w3.org/2000/svg">
<path d="M20.9749 9.025L14.9249 2.975L15.3499 2.55C15.7332 2.16667 16.2082 1.979 16.7749 1.987C17.3416 1.995 17.8166 2.191 18.1999 2.575L21.4249 5.8C21.8082 6.18333 21.9999 6.65433 21.9999 7.213C21.9999 7.77167 21.8082 8.24233 21.4249 8.625L20.9749 9.025ZM8.6499 21.4C8.26657 21.7833 7.79557 21.975 7.2369 21.975C6.67824 21.975 6.2079 21.7833 5.8259 21.4L2.5999 18.175C2.21657 17.7917 2.0249 17.3207 2.0249 16.762C2.0249 16.2033 2.21657 15.7327 2.5999 15.35L2.9999 14.95L9.0499 21L8.6499 21.4ZM12.2749 20.7C12.0749 20.9 11.8416 21 11.5749 21C11.3082 21 11.0749 20.9 10.8749 20.7L3.2999 13.125C3.0999 12.925 2.9999 12.6917 2.9999 12.425C2.9999 12.1583 3.0999 11.925 3.2999 11.725L4.7249 10.275C4.9249 10.075 5.16257 9.975 5.4379 9.975C5.71324 9.975 5.95057 10.075 6.1499 10.275L7.7249 11.85L11.8749 7.7L10.2999 6.125C10.0999 5.925 9.9999 5.69167 9.9999 5.425C9.9999 5.15833 10.0999 4.925 10.2999 4.725L11.7249 3.275C11.9249 3.075 12.1626 2.975 12.4379 2.975C12.7132 2.975 12.9506 3.075 13.1499 3.275L20.7249 10.85C20.9249 11.05 21.0249 11.2877 21.0249 11.563C21.0249 11.8383 20.9249 12.0757 20.7249 12.275L19.2749 13.7C19.0749 13.9 18.8416 14 18.5749 14C18.3082 14 18.0749 13.9 17.8749 13.7L16.2999 12.125L12.1499 16.275L13.7249 17.85C13.9249 18.05 14.0249 18.2873 14.0249 18.562C14.0249 18.8367 13.9249 19.0743 13.7249 19.275L12.2749 20.7Z" fill="#B5854B"/>
</svg>
