<?xml version="1.0" encoding="UTF-8"?>
<svg id="Layer_2" data-name="Layer 2" xmlns="http://www.w3.org/2000/svg" viewBox="0 0 19.9 17.94">
  <defs>
    <style>
      .cls-1 {
        fill: #b5854b;
        stroke-width: 0px;
      }
    </style>
  </defs>
  <g id="Layer_1-2" data-name="Layer 1">
    <path class="cls-1" d="M18.25,1.72c-1.07-1.11-2.49-1.72-4.02-1.72-.75,0-1.48.15-2.18.45-.69.3-1.31.73-1.83,1.27l-.27.28-.26-.28c-.52-.54-1.14-.97-1.83-1.27C6.47-.15,4.88-.15,3.49.45c-.7.3-1.31.73-1.83,1.28-2.17,2.25-2.22,5.82-.1,8.14l7.35,7.63c.28.3.66.44,1.04.44.36,0,.72-.13,1.01-.39,1.67-1.62,3.29-3.34,4.88-5.04.8-.85,1.58-1.68,2.4-2.54,0,0,.01,0,.01-.01,1.07-1.11,1.65-2.57,1.65-4.12s-.58-3-1.65-4.12ZM17.15,8.94c-.82.85-1.6,1.69-2.43,2.58-1.55,1.65-3.16,3.36-4.73,4.94l-7.32-7.61c-1.56-1.7-1.53-4.43.07-6.09.38-.4.83-.72,1.34-.93,1.01-.44,2.17-.44,3.19,0,.5.21.95.53,1.34.94l.27.27c.28.29.67.46,1.07.46h.01c.4,0,.79-.17,1.07-.46l.27-.28c.38-.4.84-.71,1.34-.93.51-.22,1.05-.33,1.6-.33,1.1,0,2.15.45,2.93,1.26.79.83,1.23,1.93,1.23,3.08h0c0,1.16-.44,2.25-1.23,3.08"/>
  </g>
</svg>