<svg width="20" height="19" viewBox="0 0 20 19" fill="none" xmlns="http://www.w3.org/2000/svg">
<path d="M19.1359 6.82142L19.1359 6.8182C19.1387 5.47722 18.6234 4.18771 17.6988 3.22021C16.7771 2.2605 15.5272 1.72439 14.2243 1.72412C13.5749 1.72596 12.9325 1.85917 12.3355 2.11587L12.0392 1.42686L12.3355 2.11587C11.7381 2.37269 11.1985 2.74786 10.749 3.21902L10.7462 3.22191L10.7462 3.2219L10.4827 3.49513C10.3415 3.64154 10.1469 3.72433 9.94354 3.72452C9.74015 3.72471 9.5454 3.64229 9.40394 3.49615L9.13946 3.22291L9.13456 3.21785L9.13458 3.21783C8.68634 2.74597 8.14734 2.37045 7.55034 2.11391C6.95334 1.85737 6.31069 1.72512 5.66134 1.72512C5.01199 1.72512 4.36934 1.85737 3.77234 2.11391C3.17534 2.37045 2.63634 2.74597 2.1881 3.21783L2.18479 3.22129C0.27181 5.20946 0.271639 8.42994 2.18487 10.4193L19.1359 6.82142ZM19.1359 6.82142C19.1389 8.16224 18.624 9.45169 17.6998 10.4193M19.1359 6.82142L2.1849 10.4193L9.4382 17.96C9.43825 17.96 9.4383 17.9601 9.43834 17.9601C9.70308 18.2351 10.1453 18.2462 10.4248 17.9829C12.0934 16.3707 13.68 14.6806 15.2789 12.9774C16.0789 12.1253 16.8819 11.2698 17.6998 10.4193M17.6998 10.4193C17.7001 10.419 17.7004 10.4187 17.7007 10.4183L18.2413 10.9382M17.6998 10.4193C17.6995 10.4196 17.6993 10.4198 17.6991 10.4201L18.2413 10.9382M18.2413 10.9382C19.2999 9.83031 19.8893 8.35419 19.8859 6.81974M18.2413 10.9382C17.4367 11.7749 16.6401 12.6235 15.8428 13.4726C14.2353 15.1849 12.6254 16.8997 10.9431 18.5249L19.8859 6.81974M19.8859 6.81974C19.8891 5.28515 19.2993 3.80902 18.2403 2.70128C17.1794 1.59638 15.7347 0.974121 14.2233 0.974121L19.8859 6.81974Z" stroke="#B5854B" stroke-width="1.5" stroke-linejoin="round"/>
</svg>
