<svg width="60" height="62" viewBox="0 0 60 62" fill="none" xmlns="http://www.w3.org/2000/svg">
<path d="M7.55287 60.0427H3.23816V61.8868H7.55287V60.0427Z" fill="#47515D"/>
<path d="M7.55287 25.5781H3.23816V49.5252H7.55287V25.5781Z" fill="#FFC15D"/>
<path d="M7.55287 25.5781H3.23816V49.5252H7.55287V25.5781Z" fill="#CE995F"/>
<path d="M8.14403 36.8281H2.64697L3.23815 36.4045H7.55286L8.14403 36.8281Z" fill="#7E858E"/>
<path d="M8.14403 36.8281H2.64697V60.7752H8.14403V36.8281Z" fill="#B5854B"/>
<path d="M3.23816 25.5869L5.3911 21.3516L7.55287 25.5869H3.23816Z" fill="#47515D"/>
<path d="M2.15288 56.6193V50.0281C2.15288 50.0281 2.15288 49.3046 1.99405 48.7399C1.72052 47.7781 0.705818 46.9222 0.158759 47.584C-0.432418 48.3075 0.829347 48.7928 0.741112 49.684V57.3781C0.741112 57.731 1.03229 58.031 1.39405 58.031H8.14405V56.6193H2.15288Z" fill="#47515D"/>
<path d="M46.1471 0.113281H9.9353V61.8868H60V13.9662L46.1471 0.113281Z" fill="#F4F4F4"/>
<path d="M46.1471 13.9662H60L46.1471 0.113281V13.9662Z" fill="#E1E9F0"/>
<path d="M56.9294 18.2898H14.0382V22.9574H56.9294V18.2898Z" fill="#47515D"/>
<path d="M56.9294 27.1926H14.0382V31.8603H56.9294V27.1926Z" fill="#47515D"/>
<path d="M56.9294 35.8926H14.0382V40.5602H56.9294V35.8926Z" fill="#47515D"/>
<path d="M44.2764 45.572H14.0382V50.2397H44.2764V45.572Z" fill="#47515D"/>
<path d="M56.4089 53.5662C56.4089 50.2133 53.6912 47.4956 50.3383 47.4956C46.9853 47.4956 44.2677 50.2133 44.2677 53.5662C44.2677 56.9191 46.9853 59.6368 50.3383 59.6368C53.6912 59.6368 56.4089 56.9191 56.4089 53.5662Z" fill="#B5854B"/>
</svg>
