<svg width="161" height="76" viewBox="0 0 161 76" fill="none" xmlns="http://www.w3.org/2000/svg">
<g clip-path="url(#clip0_150_139)">
<path d="M146.157 75.3556H81.5512C79.7938 75.3556 78.3642 73.7715 78.3642 71.8243V23.7024C78.3567 23.3353 78.4512 22.9734 78.637 22.6569C78.8228 22.3404 79.0928 22.0818 79.4167 21.91L103.83 7.10678C105.169 6.44146 106.642 6.09454 108.136 6.09302C109.63 6.09151 111.104 6.43545 112.444 7.09805L148.285 21.9085C148.61 22.0797 148.882 22.3384 149.069 22.6555C149.256 22.9726 149.351 23.3357 149.344 23.7039V71.8243C149.344 73.7715 147.914 75.3556 146.157 75.3556Z" fill="#F2F2F2"/>
<path d="M136.617 75.3034H81.1387C79.6234 75.3034 78.3906 74.1852 78.3906 72.8107V39.1732C78.3978 38.8928 78.4889 38.6211 78.6522 38.3934C78.8155 38.1656 79.0434 37.9923 79.3064 37.8959L105.138 27.546C107.512 26.6054 110.154 26.6041 112.528 27.5423L138.448 37.8964C138.711 37.9925 138.94 38.1658 139.103 38.3937C139.267 38.6216 139.358 38.8936 139.365 39.1742V72.8107C139.365 74.1852 138.133 75.3034 136.617 75.3034Z" fill="#B5854B"/>
<path d="M48.0497 39.979C52.5393 39.979 56.1788 36.3336 56.1788 31.8368C56.1788 27.34 52.5393 23.6946 48.0497 23.6946C43.5602 23.6946 39.9207 27.34 39.9207 31.8368C39.9207 36.3336 43.5602 39.979 48.0497 39.979Z" fill="#FF6584"/>
<path d="M51.4482 61.4811C57.1345 61.4811 61.7441 55.7019 61.7441 48.573C61.7441 41.444 57.1345 35.6648 51.4482 35.6648C45.762 35.6648 41.1523 41.444 41.1523 48.573C41.1523 55.7019 45.762 61.4811 51.4482 61.4811Z" fill="#F2F2F2"/>
<path d="M51.4765 45.9773H51.5048L52.014 75.2149H50.9392L51.4765 45.9773Z" fill="#CCCCCC"/>
<path d="M53.2326 65.3335C53.2641 65.3933 53.2705 65.4632 53.2505 65.5278C53.2305 65.5924 53.1857 65.6464 53.126 65.6779L51.6493 66.4566L51.4121 66.0053L52.8888 65.2266C52.9485 65.1951 53.0183 65.1887 53.0828 65.2087C53.1473 65.2287 53.2012 65.2736 53.2326 65.3335Z" fill="#CCCCCC"/>
<path d="M21.8479 61.4811C27.5341 61.4811 32.1437 55.7019 32.1437 48.573C32.1437 41.444 27.5341 35.6648 21.8479 35.6648C16.1616 35.6648 11.552 41.444 11.552 48.573C11.552 55.7019 16.1616 61.4811 21.8479 61.4811Z" fill="#F2F2F2"/>
<path d="M23.6324 65.8169C23.6009 65.7571 23.547 65.7122 23.4825 65.6922C23.418 65.6721 23.3482 65.6786 23.2885 65.7101L22.2576 66.2537L21.9045 45.9773H21.8762L21.3389 75.2149H22.4137L22.2676 66.8248L23.5257 66.1613C23.5854 66.1298 23.6302 66.0758 23.6502 66.0112C23.6702 65.9466 23.6638 65.8767 23.6324 65.8169Z" fill="#CCCCCC"/>
<path d="M36.6123 18.8254C43.8174 18.8254 49.6737 32.4235 49.6737 41.4567C49.6737 50.4899 43.8328 57.8127 36.6278 57.8127C29.4227 57.8127 23.5818 50.4899 23.5818 41.4567C23.5818 32.4235 29.4073 18.8254 36.6123 18.8254Z" fill="#B5854B"/>
<path d="M38.8887 63.3066C38.869 63.2691 38.8421 63.2358 38.8095 63.2087C38.7769 63.1816 38.7393 63.1611 38.6989 63.1486C38.6584 63.136 38.6159 63.1315 38.5737 63.1354C38.5316 63.1393 38.4906 63.1515 38.4531 63.1713L37.1468 63.8601L36.6994 38.1677H36.6636L35.9827 75.2149H37.3446L37.1594 64.5837L38.7536 63.743C38.7911 63.7233 38.8243 63.6963 38.8514 63.6637C38.8785 63.6311 38.8989 63.5934 38.9114 63.5529C38.924 63.5123 38.9284 63.4697 38.9245 63.4275C38.9206 63.3852 38.9085 63.3442 38.8887 63.3066Z" fill="#3F3D56"/>
<path d="M95.9242 52.1874V48.7084C95.9241 48.2547 95.7442 47.8195 95.4239 47.4987C95.1035 47.1778 94.6691 46.9976 94.2161 46.9976H85.4513C84.9982 46.9976 84.5638 47.1778 84.2435 47.4987C83.9231 47.8195 83.7432 48.2547 83.7432 48.7084V52.1874H95.9242Z" fill="white"/>
<path d="M83.7432 52.7336V58.1247C83.7432 58.5784 83.9231 59.0136 84.2435 59.3344C84.5638 59.6553 84.9982 59.8355 85.4513 59.8355H94.2161C94.6691 59.8355 95.1035 59.6553 95.4239 59.3344C95.7442 59.0136 95.9241 58.5784 95.9242 58.1247V52.7336H83.7432Z" fill="white"/>
<path d="M137.255 42.6382L110.941 32.9763C109.341 32.389 107.586 32.389 105.987 32.9763L79.6719 42.6382C79.1173 42.8418 78.5218 42.9083 77.936 42.8321C77.3502 42.7559 76.7915 42.5392 76.3072 42.2004C75.8229 41.8616 75.4275 41.4107 75.1544 40.8861C74.8814 40.3614 74.7388 39.7785 74.7388 39.1868C74.7388 38.4339 74.9696 37.6991 75.4001 37.0819C75.8305 36.4646 76.4398 35.9946 77.1456 35.7355L105.987 25.146C107.586 24.5588 109.341 24.5588 110.941 25.146L139.782 35.7355C140.487 35.9946 141.097 36.4646 141.527 37.0819C141.958 37.6991 142.189 38.4339 142.189 39.1868C142.189 39.7785 142.046 40.3614 141.773 40.8861C141.5 41.4107 141.104 41.8616 140.62 42.2004C140.136 42.5392 139.577 42.7559 138.991 42.8321C138.406 42.9083 137.81 42.8418 137.255 42.6382Z" fill="#3F3D56"/>
<path d="M112.713 75.4646H105.68C104.933 75.4638 104.218 75.1664 103.69 74.6378C103.162 74.1092 102.865 73.3924 102.864 72.6448V55.5849C102.865 54.8373 103.162 54.1206 103.69 53.592C104.218 53.0633 104.933 52.766 105.68 52.7651H112.713C113.459 52.766 114.175 53.0633 114.702 53.592C115.23 54.1206 115.527 54.8373 115.528 55.5849V72.6448C115.527 73.3924 115.23 74.1092 114.702 74.6378C114.175 75.1664 113.459 75.4638 112.713 75.4646ZM105.68 53.2485C105.061 53.2492 104.468 53.4956 104.031 53.9336C103.594 54.3716 103.348 54.9655 103.347 55.5849V72.6448C103.348 73.2643 103.594 73.8581 104.031 74.2961C104.468 74.7341 105.061 74.9805 105.68 74.9812H112.713C113.331 74.9805 113.924 74.7341 114.361 74.2961C114.799 73.8581 115.045 73.2643 115.045 72.6448V55.5849C115.045 54.9655 114.799 54.3716 114.361 53.9336C113.924 53.4956 113.331 53.2492 112.713 53.2485H105.68Z" fill="#3F3D56"/>
<path d="M113.395 16.4812C113.281 15.2129 112.698 14.0329 111.76 13.1736C110.822 12.3142 109.597 11.8376 108.325 11.8376C107.054 11.8376 105.829 12.3142 104.891 13.1736C103.952 14.0329 103.369 15.2129 103.256 16.4812H113.395Z" fill="white"/>
<path d="M103.237 17.0276C103.261 18.3637 103.807 19.6372 104.759 20.5739C105.711 21.5105 106.991 22.0353 108.326 22.0353C109.66 22.0353 110.941 21.5105 111.892 20.5739C112.844 19.6372 113.39 18.3637 113.414 17.0276H103.237Z" fill="white"/>
<path d="M112.598 22.6621H104.053C103.646 22.6621 103.255 22.5001 102.968 22.2118C102.68 21.9235 102.518 21.5325 102.518 21.1248C102.518 20.717 102.68 20.326 102.968 20.0377C103.255 19.7494 103.646 19.5874 104.053 19.5874H112.598C113.005 19.5874 113.395 19.7494 113.683 20.0377C113.971 20.326 114.133 20.717 114.133 21.1248C114.133 21.5325 113.971 21.9235 113.683 22.2118C113.395 22.5001 113.005 22.6621 112.598 22.6621Z" fill="#CCCCCC"/>
<path d="M83.8342 58.095C83.4698 58.095 83.1203 58.24 82.8626 58.4981C82.605 58.7561 82.4602 59.1062 82.4602 59.4712C82.4602 59.8362 82.605 60.1862 82.8626 60.4443C83.1203 60.7024 83.4698 60.8474 83.8342 60.8474H95.8334C96.1978 60.8474 96.5473 60.7024 96.8049 60.4443C97.0626 60.1862 97.2074 59.8362 97.2074 59.4712C97.2074 59.1062 97.0626 58.7561 96.8049 58.4981C96.5473 58.24 96.1978 58.095 95.8334 58.095H83.8342Z" fill="#CCCCCC"/>
<path d="M121.104 52.7336V58.1247C121.104 58.5784 121.284 59.0136 121.605 59.3344C121.925 59.6553 122.359 59.8355 122.812 59.8355H131.577C132.03 59.8355 132.465 59.6553 132.785 59.3344C133.105 59.0136 133.285 58.5784 133.285 58.1247V52.7336H121.104Z" fill="white"/>
<path d="M133.285 52.1874V48.7084C133.285 48.2547 133.105 47.8195 132.785 47.4987C132.465 47.1778 132.03 46.9976 131.577 46.9976H122.812C122.359 46.9976 121.925 47.1778 121.605 47.4987C121.284 47.8195 121.104 48.2547 121.104 48.7084V52.1874H133.285Z" fill="white"/>
<path d="M113.378 64.6611C113.93 64.6611 114.378 64.2126 114.378 63.6595C114.378 63.1064 113.93 62.658 113.378 62.658C112.825 62.658 112.378 63.1064 112.378 63.6595C112.378 64.2126 112.825 64.6611 113.378 64.6611Z" fill="#3F3D56"/>
<path d="M79.7897 64.3043L75.8511 58.1678L76.0333 58.0503L79.7707 63.8734L82.8162 58.0587L83.0079 58.1594L79.7897 64.3043Z" fill="#3F3D56"/>
<path d="M82.9969 56.1562H73.6274V55.9935C73.6274 55.7299 73.5756 55.4689 73.4749 55.2254C73.3742 54.9818 73.2266 54.7606 73.0405 54.5742C72.8544 54.3878 72.6335 54.24 72.3904 54.1391C72.1473 54.0382 71.8867 53.9863 71.6235 53.9863C71.3604 53.9863 71.0998 54.0382 70.8567 54.1391C70.6136 54.24 70.3927 54.3878 70.2066 54.5742C70.0205 54.7606 69.8729 54.9818 69.7722 55.2254C69.6715 55.4689 69.6197 55.7299 69.6197 55.9935V56.1562H68.699C68.1675 56.1562 67.6578 56.3677 67.282 56.7441C66.9062 57.1205 66.6951 57.631 66.6951 58.1633C66.6951 58.6956 66.9062 59.2062 67.282 59.5826C67.6578 59.959 68.1675 60.1704 68.699 60.1704H69.6197V75.3386C73.6125 75.2584 69.5908 75.4196 73.6274 75.3386V60.1704H82.9969C83.5284 60.1704 84.0381 59.959 84.4139 59.5826C84.7897 59.2062 85.0008 58.6956 85.0008 58.1633C85.0008 57.631 84.7897 57.1205 84.4139 56.7441C84.0381 56.3677 83.5284 56.1562 82.9969 56.1562Z" fill="#3F3D56"/>
<path d="M71.5695 58.8685C71.9883 58.8685 72.3277 58.5285 72.3277 58.1091C72.3277 57.6896 71.9883 57.3496 71.5695 57.3496C71.1507 57.3496 70.8113 57.6896 70.8113 58.1091C70.8113 58.5285 71.1507 58.8685 71.5695 58.8685Z" fill="white"/>
<path d="M84.1879 68.1708H75.5239C75.1147 68.1703 74.7224 68.0073 74.433 67.7175C74.1437 67.4276 73.9809 67.0347 73.9805 66.6248V63.8055C73.9809 63.3956 74.1437 63.0026 74.4331 62.7128C74.7224 62.423 75.1147 62.26 75.5239 62.2595H84.1879C84.5971 62.26 84.9894 62.423 85.2788 62.7128C85.5681 63.0026 85.7309 63.3956 85.7314 63.8055V66.6248C85.7309 67.0347 85.5681 67.4276 85.2788 67.7175C84.9894 68.0073 84.5971 68.1703 84.1879 68.1708Z" fill="#CCCCCC"/>
<path d="M82.5638 64.51H77.0396C76.7106 64.51 76.4438 64.7772 76.4438 65.1067C76.4438 65.4363 76.7106 65.7034 77.0396 65.7034H82.5638C82.8928 65.7034 83.1596 65.4363 83.1596 65.1067C83.1596 64.7772 82.8928 64.51 82.5638 64.51Z" fill="#B5854B"/>
<path d="M160.292 75.5001H0.124362C0.0913792 75.5001 0.0597478 75.487 0.0364253 75.4636C0.0131027 75.4403 0 75.4086 0 75.3755C0 75.3425 0.0131027 75.3108 0.0364253 75.2875C0.0597478 75.2641 0.0913792 75.251 0.124362 75.251H160.292C160.325 75.251 160.357 75.2641 160.38 75.2875C160.404 75.3108 160.417 75.3425 160.417 75.3755C160.417 75.4086 160.404 75.4403 160.38 75.4636C160.357 75.487 160.325 75.5001 160.292 75.5001Z" fill="#CCCCCC"/>
<path d="M133.103 61.0088H121.104C120.697 61.0088 120.307 60.8468 120.019 60.5585C119.731 60.2702 119.569 59.8792 119.569 59.4714C119.569 59.0637 119.731 58.6727 120.019 58.3844C120.307 58.0961 120.697 57.9341 121.104 57.9341H133.103C133.51 57.9341 133.901 58.0961 134.189 58.3844C134.477 58.6727 134.638 59.0637 134.638 59.4714C134.638 59.8792 134.477 60.2702 134.189 60.5585C133.901 60.8468 133.51 61.0088 133.103 61.0088Z" fill="#CCCCCC"/>
<path d="M149.222 25.3077C149.222 25.3077 146.312 25.1009 140.374 24.8243C133.296 12.4172 110.291 9.42657 110.291 0.500022L138.566 0.5C141.395 0.5 144.109 1.62566 146.109 3.62933C148.11 5.63301 149.233 8.35059 149.233 11.1842L149.222 25.3077Z" fill="#CCCCCC"/>
<path d="M124.698 3.76196C124.634 3.76203 124.573 3.78752 124.528 3.83283C124.482 3.87814 124.457 3.93958 124.457 4.00366V12.0731C124.457 12.1372 124.482 12.1986 124.528 12.2439C124.573 12.2893 124.634 12.3147 124.698 12.3148H129.716C129.78 12.3147 129.842 12.2893 129.887 12.2439C129.932 12.1986 129.958 12.1372 129.958 12.0731V4.00366C129.958 3.93958 129.932 3.87814 129.887 3.83283C129.842 3.78752 129.78 3.76203 129.716 3.76196H124.698Z" fill="#F2F2F2"/>
<path d="M138.636 24.6569L112.322 8.77069C110.722 8.18345 108.967 8.18345 107.367 8.77069L81.0528 24.6569C80.4982 24.8605 79.9027 24.9271 79.3169 24.8509C78.7311 24.7747 78.1723 24.5579 77.6881 24.2191C77.2038 23.8803 76.8083 23.4294 76.5353 22.9048C76.2622 22.3801 76.1196 21.7972 76.1196 21.2056C76.1196 20.4526 76.3505 19.7179 76.7809 19.1006C77.2114 18.4833 77.8207 18.0134 78.5265 17.7542L107.367 0.940433C108.967 0.353189 110.722 0.353189 112.322 0.940433L141.163 17.7542C141.868 18.0134 142.478 18.4833 142.908 19.1006C143.339 19.7179 143.569 20.4526 143.569 21.2056C143.569 21.7972 143.427 22.3801 143.154 22.9048C142.881 23.4294 142.485 23.8803 142.001 24.2191C141.517 24.5579 140.958 24.7746 140.372 24.8509C139.786 24.9271 139.191 24.8605 138.636 24.6569Z" fill="#CCCCCC"/>
</g>
<defs>
<clipPath id="clip0_150_139">
<rect width="160.417" height="75" fill="white" transform="translate(0 0.5)"/>
</clipPath>
</defs>
</svg>
