<svg width="25" height="25" viewBox="0 0 25 25" fill="none" xmlns="http://www.w3.org/2000/svg">
<path fill-rule="evenodd" clip-rule="evenodd" d="M12.1361 1.71065C12.4972 1.42978 13.0028 1.42978 13.3639 1.71065L22.3639 8.71065C22.6075 8.9001 22.75 9.19141 22.75 9.5V20.5C22.75 21.2957 22.4339 22.0587 21.8713 22.6213C21.3087 23.1839 20.5457 23.5 19.75 23.5H5.75C4.95435 23.5 4.19129 23.1839 3.62868 22.6213C3.06607 22.0587 2.75 21.2957 2.75 20.5V9.5C2.75 9.19141 2.89247 8.9001 3.13606 8.71065L12.1361 1.71065ZM4.75 9.98908V20.5C4.75 20.7652 4.85536 21.0196 5.04289 21.2071C5.23043 21.3946 5.48478 21.5 5.75 21.5H19.75C20.0152 21.5 20.2696 21.3946 20.4571 21.2071C20.6446 21.0196 20.75 20.7652 20.75 20.5V9.98908L12.75 3.76686L4.75 9.98908Z" fill="#47515D"/>
<path fill-rule="evenodd" clip-rule="evenodd" d="M8.75 12.5C8.75 11.9477 9.19772 11.5 9.75 11.5H15.75C16.3023 11.5 16.75 11.9477 16.75 12.5V22.5C16.75 23.0523 16.3023 23.5 15.75 23.5C15.1977 23.5 14.75 23.0523 14.75 22.5V13.5H10.75V22.5C10.75 23.0523 10.3023 23.5 9.75 23.5C9.19772 23.5 8.75 23.0523 8.75 22.5V12.5Z" fill="#47515D"/>
</svg>
