<svg width="10" height="13" viewBox="0 0 10 13" fill="none" xmlns="http://www.w3.org/2000/svg">
<path d="M5 0C3.6744 0.00153592 2.40354 0.519407 1.4662 1.44001C0.528855 2.36062 0.00156917 3.60878 5.31949e-06 4.91071C-0.00158236 5.97465 0.352269 7.00972 1.00728 7.85714C1.00728 7.85714 1.14364 8.03348 1.16591 8.05893L5 12.5L8.83591 8.0567C8.8559 8.03304 8.99272 7.85714 8.99272 7.85714L8.99318 7.8558C9.64786 7.00876 10.0015 5.97417 10 4.91071C9.99843 3.60878 9.47114 2.36062 8.5338 1.44001C7.59646 0.519407 6.3256 0.00153592 5 0ZM5 6.69643C4.6404 6.69643 4.28887 6.5917 3.98987 6.39548C3.69088 6.19926 3.45783 5.92037 3.32022 5.59408C3.18261 5.26778 3.1466 4.90873 3.21676 4.56234C3.28691 4.21594 3.46008 3.89776 3.71435 3.64802C3.96863 3.39829 4.2926 3.22821 4.64529 3.15931C4.99798 3.09041 5.36356 3.12577 5.69579 3.26093C6.02802 3.39609 6.31198 3.62497 6.51176 3.91862C6.71155 4.21228 6.81818 4.55753 6.81818 4.91071C6.81758 5.38413 6.62583 5.83799 6.28498 6.17275C5.94414 6.50751 5.48203 6.69584 5 6.69643Z" fill="#737373"/>
</svg>
