<svg width="234" height="67" viewBox="0 0 234 67" fill="none" xmlns="http://www.w3.org/2000/svg">
<g clip-path="url(#clip0_42_39)">
<path d="M39.4335 54.1005L36.1043 46.0634L13.1628 46.059L9.75756 54.0961H0L25.137 0.849609L49.6893 54.1005H39.4335ZM15.694 39.2342H33.2965L24.6135 17.2534L15.6919 39.2342H15.694Z" fill="#1B1B1B"/>
<path d="M105.313 67.0001C101.042 66.9293 95.1163 65.9957 87.607 63.5689H87.5986C86.3784 63.1818 85.6458 62.9539 85.1497 62.8013L84.7085 62.6619C80.5791 61.1996 76.7327 60.7571 71.8666 60.6863C72.0017 59.3922 73.2726 51.4901 73.2726 51.4901C73.2726 51.4901 63.8232 49.3243 59.8585 41.2186C58.2309 37.8914 56.9705 34.3253 56.5758 30.3543C56.2697 27.2881 56.4217 24.2264 57.0254 21.2597C57.6271 18.2998 58.6784 15.5057 60.152 12.9572V12.9528C61.1949 11.1343 62.4046 9.47291 63.7493 8.01062C65.092 6.55054 66.6099 5.24974 68.2587 4.14141C69.9074 3.03307 71.6597 2.13711 73.471 1.47565C75.2844 0.814192 77.2077 0.367318 79.1879 0.150519H79.1921C82.0147 -0.159196 84.814 0.0155716 87.512 0.672608C90.2079 1.32743 92.8004 2.46895 95.2155 4.05955C96.9297 5.1878 98.494 6.50187 99.8684 7.96637C101.243 9.43088 102.465 11.0878 103.502 12.8908C104.54 14.6982 105.389 16.645 106.022 18.6781C106.658 20.72 107.095 22.9057 107.321 25.1798C107.677 28.7593 107.356 32.332 106.366 35.7942C105.376 39.2541 103.789 42.3712 101.644 45.0613L101.631 45.0768C99.7206 47.5456 98.4666 48.8531 95.0783 50.6118C92.1332 52.1404 90.8032 52.8019 86.8766 53.1669C83.1863 53.5098 79.437 52.9037 79.437 52.9037L79.2956 56.1247L80.4651 56.2619C82.0843 56.4543 86.9484 57.483 92.6969 58.8391C97.8459 60.0514 103.166 60.5381 106.981 60.5293L105.311 67.0001H105.313ZM80.1506 9.79811C75.8946 10.2649 72.4471 12.4351 69.9053 16.2446C67.4016 19.9966 66.3903 24.4896 66.9012 29.5977C67.4058 34.6571 69.2804 38.8095 72.4703 41.9376C75.7109 45.1144 79.513 46.4904 83.7711 46.0236C88.0525 45.5546 91.5062 43.391 94.0396 39.5926C96.5328 35.8539 97.5398 31.3808 97.0331 26.2948C96.5244 21.1867 94.6539 17.01 91.4767 13.8819C88.2467 10.7007 84.4382 9.3269 80.1569 9.7959H80.1548L80.1506 9.79811Z" fill="#B5854B"/>
<path d="M153.577 54.1203L150.248 46.0832L127.307 46.0788L123.901 54.1159H114.142L139.281 0.871582L163.833 54.1225H153.577V54.1203ZM129.838 39.2562H147.44L138.757 17.2754L129.836 39.2562H129.838Z" fill="#1B1B1B"/>
<path d="M201.934 54.1293L187.916 32.5334H184.205L184.201 54.1249H174.542L174.551 1.7146H186.814C191.015 1.71681 194.298 2.00662 196.572 2.57516C198.776 3.12822 200.752 4.05737 202.445 5.34268L202.449 5.3471C204.231 6.68772 205.631 8.3646 206.608 10.3335C207.583 12.298 208.078 14.3996 208.078 16.5787C208.078 18.1803 207.881 19.6979 207.495 21.0916C207.113 22.4721 206.532 23.7707 205.768 24.9542C205.002 26.1422 204.052 27.2151 202.945 28.1465C201.824 29.0889 200.507 29.9141 199.029 30.5976L197.611 31.2547L213.123 54.1293H201.936H201.934ZM184.205 27.0315H188.115C191.541 27.0315 194.233 26.2617 196.114 24.7418C198.096 23.1402 199.103 20.8394 199.103 17.9082C199.103 14.8244 198.107 12.5303 196.141 11.0923C194.29 9.74062 191.476 9.08358 187.536 9.08358H184.209L184.207 27.0337L184.205 27.0315Z" fill="#1B1B1B"/>
<path d="M223.915 52.9477L223.924 2.63911L228.925 1.74536L233.926 2.64132L233.918 52.95L228.916 54.1025L223.915 52.9477Z" fill="black"/>
<path d="M223.915 52.9476L223.924 2.63901L228.585 1.79614V54.0272L223.915 52.9476Z" fill="url(#paint0_linear_42_39)"/>
<path d="M229.25 1.79614L234 2.67662L233.989 52.9852L229.25 54.0272V1.79614Z" fill="url(#paint1_linear_42_39)"/>
</g>
<defs>
<linearGradient id="paint0_linear_42_39" x1="228.591" y1="27.9114" x2="223.919" y2="27.9106" gradientUnits="userSpaceOnUse">
<stop stop-color="#1B1B1B"/>
<stop offset="1"/>
</linearGradient>
<linearGradient id="paint1_linear_42_39" x1="229.247" y1="27.9162" x2="233.997" y2="27.917" gradientUnits="userSpaceOnUse">
<stop stop-color="#1B1B1B"/>
<stop offset="1"/>
</linearGradient>
<clipPath id="clip0_42_39">
<rect width="234" height="67" fill="white"/>
</clipPath>
</defs>
</svg>
