<svg width="163" height="215" viewBox="0 0 163 215" fill="none" xmlns="http://www.w3.org/2000/svg">
<g clip-path="url(#clip0_56_585)">
<path d="M116.706 53.5947L81.6227 70.2513V95.8363L64.6128 78.6641L28.9834 96.6943V208.598H134.021V70.5937L116.706 53.5947ZM59.4409 203.533H34.1254V99.4415L59.4409 87.3019V203.531V203.533ZM111.518 203.533H86.2028V74.0297L111.518 62.5551V203.535V203.533Z" fill="white"/>
<path d="M157.777 3.38232V208.086H144.14V27.6753L18.8728 90.3658V208.086H5.23584V79.3609L157.777 3.38232Z" fill="#F2F1F1"/>
<path d="M118.876 62.9353L132.208 75.9587" stroke="#B5854B" stroke-width="1.5" stroke-miterlimit="10"/>
<path d="M118.876 65.6169L132.208 78.6424" stroke="#B5854B" stroke-width="1.5" stroke-miterlimit="10"/>
<path d="M118.876 68.3003L132.208 81.3257" stroke="#B5854B" stroke-width="1.5" stroke-miterlimit="10"/>
<path d="M118.876 71.386L132.208 84.4094" stroke="#B5854B" stroke-width="1.5" stroke-miterlimit="10"/>
<path d="M118.876 74.4697L132.208 87.4951" stroke="#B5854B" stroke-width="1.5" stroke-miterlimit="10"/>
<path d="M118.876 77.5552L132.208 90.5786" stroke="#B5854B" stroke-width="1.5" stroke-miterlimit="10"/>
<path d="M118.876 80.6409L132.208 93.6643" stroke="#B5854B" stroke-width="1.5" stroke-miterlimit="10"/>
<path d="M118.876 83.7246L132.208 96.75" stroke="#B5854B" stroke-width="1.5" stroke-miterlimit="10"/>
<path d="M118.876 86.8103L132.208 99.8337" stroke="#B5854B" stroke-width="1.5" stroke-miterlimit="10"/>
<path d="M118.876 89.896L132.208 102.919" stroke="#B5854B" stroke-width="1.5" stroke-miterlimit="10"/>
<path d="M118.876 92.9795L132.208 106.005" stroke="#B5854B" stroke-width="1.5" stroke-miterlimit="10"/>
<path d="M118.876 96.0652L132.208 109.089" stroke="#B5854B" stroke-width="1.5" stroke-miterlimit="10"/>
<path d="M118.876 99.1489L132.208 112.174" stroke="#B5854B" stroke-width="1.5" stroke-miterlimit="10"/>
<path d="M118.876 102.235L132.208 115.26" stroke="#B5854B" stroke-width="1.5" stroke-miterlimit="10"/>
<path d="M118.876 105.32L132.208 118.343" stroke="#B5854B" stroke-width="1.5" stroke-miterlimit="10"/>
<path d="M118.876 108.404L132.208 121.429" stroke="#B5854B" stroke-width="1.5" stroke-miterlimit="10"/>
<path d="M118.876 111.49L132.208 124.515" stroke="#B5854B" stroke-width="1.5" stroke-miterlimit="10"/>
<path d="M118.876 114.575L132.208 127.599" stroke="#B5854B" stroke-width="1.5" stroke-miterlimit="10"/>
<path d="M118.876 117.659L132.208 130.684" stroke="#B5854B" stroke-width="1.5" stroke-miterlimit="10"/>
<path d="M118.876 120.744L132.208 133.77" stroke="#B5854B" stroke-width="1.5" stroke-miterlimit="10"/>
<path d="M118.876 123.83L132.208 136.854" stroke="#B5854B" stroke-width="1.5" stroke-miterlimit="10"/>
<path d="M118.876 126.914L132.208 139.939" stroke="#B5854B" stroke-width="1.5" stroke-miterlimit="10"/>
<path d="M118.876 129.999L132.208 143.025" stroke="#B5854B" stroke-width="1.5" stroke-miterlimit="10"/>
<path d="M118.876 133.085L132.208 146.108" stroke="#B5854B" stroke-width="1.5" stroke-miterlimit="10"/>
<path d="M118.876 136.169L132.208 149.194" stroke="#B5854B" stroke-width="1.5" stroke-miterlimit="10"/>
<path d="M118.876 139.254L132.208 152.28" stroke="#B5854B" stroke-width="1.5" stroke-miterlimit="10"/>
<path d="M118.876 142.34L132.208 155.364" stroke="#B5854B" stroke-width="1.5" stroke-miterlimit="10"/>
<path d="M118.876 145.424L132.208 158.449" stroke="#B5854B" stroke-width="1.5" stroke-miterlimit="10"/>
<path d="M118.876 148.509L132.208 161.535" stroke="#B5854B" stroke-width="1.5" stroke-miterlimit="10"/>
<path d="M118.876 151.595L132.208 164.618" stroke="#B5854B" stroke-width="1.5" stroke-miterlimit="10"/>
<path d="M118.876 154.679L132.208 167.704" stroke="#B5854B" stroke-width="1.5" stroke-miterlimit="10"/>
<path d="M118.876 157.764L132.208 170.79" stroke="#B5854B" stroke-width="1.5" stroke-miterlimit="10"/>
<path d="M118.876 161.252L132.208 173.873" stroke="#B5854B" stroke-width="1.5" stroke-miterlimit="10"/>
<path d="M118.876 164.829L132.208 176.959" stroke="#B5854B" stroke-width="1.5" stroke-miterlimit="10"/>
<path d="M118.876 168.763L132.208 179.73" stroke="#B5854B" stroke-width="1.5" stroke-miterlimit="10"/>
<path d="M118.876 172.607L132.208 182.324" stroke="#B5854B" stroke-width="1.5" stroke-miterlimit="10"/>
<path d="M118.876 176.23L132.208 184.559" stroke="#B5854B" stroke-width="1.5" stroke-miterlimit="10"/>
<path d="M118.876 182.981L132.208 189.075" stroke="#B5854B" stroke-width="1.5" stroke-miterlimit="10"/>
<path d="M118.876 179.672L132.208 186.839" stroke="#B5854B" stroke-width="1.5" stroke-miterlimit="10"/>
<path d="M118.876 186.021L132.208 191.087" stroke="#B5854B" stroke-width="1.5" stroke-miterlimit="10"/>
<path d="M118.876 188.971L132.208 193.01" stroke="#B5854B" stroke-width="1.5" stroke-miterlimit="10"/>
<path d="M118.876 191.923L132.208 194.798" stroke="#B5854B" stroke-width="1.5" stroke-miterlimit="10"/>
<path d="M118.876 196.976L132.208 198.777" stroke="#B5854B" stroke-width="1.5" stroke-miterlimit="10"/>
<path d="M118.876 194.828L132.208 196.811" stroke="#B5854B" stroke-width="1.5" stroke-miterlimit="10"/>
<path d="M118.876 201.76L132.208 202.667" stroke="#B5854B" stroke-width="1.5" stroke-miterlimit="10"/>
<path d="M118.876 199.255L132.208 200.701" stroke="#B5854B" stroke-width="1.5" stroke-miterlimit="10"/>
<path d="M118.83 204.352L132.208 204.724" stroke="#B5854B" stroke-width="1.5" stroke-miterlimit="10"/>
<path d="M66.5693 102.234L79.9035 115.26" stroke="#B5854B" stroke-width="1.5" stroke-miterlimit="10"/>
<path d="M66.5693 99.0154L79.9035 112.041" stroke="#B5854B" stroke-width="1.5" stroke-miterlimit="10"/>
<path d="M66.5693 95.7068L79.9035 108.732" stroke="#B5854B" stroke-width="1.5" stroke-miterlimit="10"/>
<path d="M66.5693 92.4878L79.9035 105.513" stroke="#B5854B" stroke-width="1.5" stroke-miterlimit="10"/>
<path d="M66.5693 89.2688L79.9035 102.294" stroke="#B5854B" stroke-width="1.5" stroke-miterlimit="10"/>
<path d="M66.5693 105.32L79.9035 118.343" stroke="#B5854B" stroke-width="1.5" stroke-miterlimit="10"/>
<path d="M66.5693 108.404L79.9035 121.429" stroke="#B5854B" stroke-width="1.5" stroke-miterlimit="10"/>
<path d="M66.5693 111.49L79.9035 124.515" stroke="#B5854B" stroke-width="1.5" stroke-miterlimit="10"/>
<path d="M66.5693 114.575L79.9035 127.599" stroke="#B5854B" stroke-width="1.5" stroke-miterlimit="10"/>
<path d="M66.5693 117.659L79.9035 130.684" stroke="#B5854B" stroke-width="1.5" stroke-miterlimit="10"/>
<path d="M66.5693 120.744L79.9035 133.77" stroke="#B5854B" stroke-width="1.5" stroke-miterlimit="10"/>
<path d="M66.5693 123.83L79.9035 136.854" stroke="#B5854B" stroke-width="1.5" stroke-miterlimit="10"/>
<path d="M66.5693 126.914L79.9035 139.939" stroke="#B5854B" stroke-width="1.5" stroke-miterlimit="10"/>
<path d="M66.5693 129.999L79.9035 143.025" stroke="#B5854B" stroke-width="1.5" stroke-miterlimit="10"/>
<path d="M66.5693 133.085L79.9035 146.108" stroke="#B5854B" stroke-width="1.5" stroke-miterlimit="10"/>
<path d="M66.5693 136.169L79.9035 149.194" stroke="#B5854B" stroke-width="1.5" stroke-miterlimit="10"/>
<path d="M66.5693 139.254L79.9035 152.28" stroke="#B5854B" stroke-width="1.5" stroke-miterlimit="10"/>
<path d="M66.5693 142.34L79.9035 155.363" stroke="#B5854B" stroke-width="1.5" stroke-miterlimit="10"/>
<path d="M66.5693 145.424L79.9035 158.449" stroke="#B5854B" stroke-width="1.5" stroke-miterlimit="10"/>
<path d="M66.5693 148.509L79.9035 161.535" stroke="#B5854B" stroke-width="1.5" stroke-miterlimit="10"/>
<path d="M66.5693 151.595L79.9035 164.618" stroke="#B5854B" stroke-width="1.5" stroke-miterlimit="10"/>
<path d="M66.5693 154.678L79.9035 167.704" stroke="#B5854B" stroke-width="1.5" stroke-miterlimit="10"/>
<path d="M66.5693 157.764L79.9035 170.79" stroke="#B5854B" stroke-width="1.5" stroke-miterlimit="10"/>
<path d="M66.5693 161.252L79.9035 173.873" stroke="#B5854B" stroke-width="1.5" stroke-miterlimit="10"/>
<path d="M66.5693 164.829L79.9035 176.959" stroke="#B5854B" stroke-width="1.5" stroke-miterlimit="10"/>
<path d="M66.5693 168.763L79.9035 179.73" stroke="#B5854B" stroke-width="1.5" stroke-miterlimit="10"/>
<path d="M66.5693 172.607L79.9035 182.324" stroke="#B5854B" stroke-width="1.5" stroke-miterlimit="10"/>
<path d="M66.5693 176.23L79.9035 184.559" stroke="#B5854B" stroke-width="1.5" stroke-miterlimit="10"/>
<path d="M66.5693 182.981L79.9035 189.075" stroke="#B5854B" stroke-width="1.5" stroke-miterlimit="10"/>
<path d="M66.5693 179.672L79.9035 186.839" stroke="#B5854B" stroke-width="1.5" stroke-miterlimit="10"/>
<path d="M66.5693 186.021L79.9035 191.087" stroke="#B5854B" stroke-width="1.5" stroke-miterlimit="10"/>
<path d="M66.5693 188.971L79.9035 193.01" stroke="#B5854B" stroke-width="1.5" stroke-miterlimit="10"/>
<path d="M66.5693 191.923L79.9035 194.798" stroke="#B5854B" stroke-width="1.5" stroke-miterlimit="10"/>
<path d="M66.5693 196.976L79.9035 198.777" stroke="#B5854B" stroke-width="1.5" stroke-miterlimit="10"/>
<path d="M66.5693 194.828L79.9035 196.811" stroke="#B5854B" stroke-width="1.5" stroke-miterlimit="10"/>
<path d="M66.5693 201.76L79.9035 202.667" stroke="#B5854B" stroke-width="1.5" stroke-miterlimit="10"/>
<path d="M66.5693 199.255L79.9035 200.7" stroke="#B5854B" stroke-width="1.5" stroke-miterlimit="10"/>
<path d="M66.5254 204.352L79.9034 204.724" stroke="#B5854B" stroke-width="1.5" stroke-miterlimit="10"/>
</g>
<defs>
<clipPath id="clip0_56_585">
<rect width="163" height="215" fill="white"/>
</clipPath>
</defs>
</svg>
