<svg width="60" height="60" viewBox="0 0 60 60" fill="none" xmlns="http://www.w3.org/2000/svg">
<g clip-path="url(#clip0_907_509)">
<path d="M60 29.9961C60 13.4351 46.5649 0 29.9961 0C13.4272 0 0 13.4351 0 29.9961C0 46.557 13.4272 59.9921 29.9961 59.9921C46.5649 59.9921 59.9921 46.5649 59.9921 29.9961H60Z" fill="#97B93D"/>
<path d="M26.7123 54.2533C18.2266 54.2533 12.9536 50.1565 12.9536 43.5731C12.9536 38.7501 15.8269 35.8531 18.3529 33.3034C19.4186 32.2299 20.4289 31.2116 21.1946 30.0986C21.7314 29.325 22.3234 27.7857 22.9549 26.1596C25.2362 20.2472 29.0489 10.3564 40.7394 10.3564C41.7972 10.3564 42.9102 10.4433 44.0469 10.609C47.4333 11.0985 50.2908 13.064 52.2958 16.3004C55.4454 21.3682 56.0532 29.025 53.843 35.8057C50.8591 44.9782 40.5737 54.2612 26.7044 54.2612L26.7123 54.2533Z" fill="#F9E6C9"/>
<path d="M26.7123 52.5089C19.1896 52.5089 14.6981 49.1699 14.6981 43.5733C14.6981 39.4685 17.1846 36.9583 19.5922 34.535C20.6658 33.4535 21.7709 32.3326 22.6313 31.0933C23.2865 30.1461 23.8864 28.5831 24.5889 26.7834C26.8386 20.9341 30.2487 12.1011 40.7394 12.1011C41.7104 12.1011 42.7444 12.18 43.8022 12.33C46.6597 12.7405 49.091 14.4297 50.8197 17.2162C53.7088 21.8656 54.2455 28.9462 52.1932 35.2612C49.3988 43.8337 39.7527 52.5089 26.7123 52.5089Z" fill="#3EB2D2"/>
<path d="M43.739 12.7563C27.5885 10.4277 26.1045 26.8544 22.9944 31.3381C20.2 35.3717 15.1401 37.8425 15.1401 43.5654C15.1401 49.2883 20.1921 52.059 26.7123 52.059C39.358 52.059 48.9646 43.7549 51.7748 35.1192C54.9875 25.2599 51.7037 13.9009 43.739 12.7563Z" fill="#6BBEBB"/>
<path d="M48.6331 22.8047L46.8728 24.0914C47.3938 24.8097 47.5753 25.6701 47.449 26.4832L49.604 26.8226C49.8172 25.457 49.5093 24.0045 48.6252 22.8047H48.6331Z" fill="#FBFBFB"/>
<path d="M46.1703 28.5987L47.457 30.3669C48.6647 29.4907 49.3988 28.2041 49.6119 26.8385L47.457 26.499C47.3307 27.3121 46.8965 28.0778 46.1703 28.5987Z" fill="#B5854B"/>
<path d="M46.8728 24.0915L48.633 22.8048C47.7568 21.5971 46.4702 20.863 45.0967 20.6577L44.7651 22.8127C45.5782 22.939 46.3439 23.381 46.8728 24.0915Z" fill="#B5854B"/>
<path d="M43.7785 29.175L43.4391 31.3378C44.8047 31.551 46.2571 31.2431 47.457 30.359L46.1703 28.5908C45.452 29.1118 44.5916 29.3013 43.7785 29.1671V29.175Z" fill="#FBFBFB"/>
<path d="M41.6709 27.8962L39.9027 29.1829C40.7868 30.3906 42.0735 31.1248 43.4391 31.3379L43.7785 29.175C42.9655 29.0487 42.1998 28.6146 41.6709 27.8962Z" fill="#B5854B"/>
<path d="M41.6709 27.8963C41.1499 27.1858 40.9683 26.3175 41.0946 25.5045L38.9317 25.165C38.7186 26.5306 39.0265 27.9831 39.9106 29.1829L41.6788 27.8963H41.6709Z" fill="#FBFBFB"/>
<path d="M42.3734 23.3968C43.0917 22.8758 43.9522 22.6864 44.7652 22.8127L45.0967 20.6577C43.7311 20.4446 42.2787 20.7524 41.0789 21.6365L42.3734 23.4047V23.3968Z" fill="#FBFBFB"/>
<path d="M42.3734 23.3969L41.0788 21.6287C39.8711 22.5049 39.137 23.7915 38.9238 25.1571L41.0867 25.4966C41.213 24.6835 41.655 23.9178 42.3655 23.3969H42.3734Z" fill="#B5854B"/>
<path d="M20.8395 6.13846L16.2576 8.42993L21.07 18.0528L25.652 15.7613L20.8395 6.13846Z" fill="#FBFBFB"/>
<path d="M20.8303 6.13808L16.2491 8.43115L16.5848 9.10174L21.166 6.80866L20.8303 6.13808Z" fill="#B5854B"/>
<path d="M21.9129 8.30402L17.3345 10.5932L16.9951 9.93012L21.5814 7.63306L21.9129 8.30402Z" fill="#B5854B"/>
<path d="M22.3244 9.12265L17.7421 11.4133L18.0774 12.0841L22.6597 9.79342L22.3244 9.12265Z" fill="#B5854B"/>
<path d="M23.4048 11.2879L18.8264 13.5771L18.4949 12.9061L23.0732 10.6169L23.4048 11.2879Z" fill="#B5854B"/>
<path d="M23.8164 12.105L19.2333 14.394L19.5683 15.0649L24.1515 12.7758L23.8164 12.105Z" fill="#B5854B"/>
<path d="M24.5639 13.606L19.9819 15.8975L20.3174 16.5682L24.8993 14.2767L24.5639 13.606Z" fill="#B5854B"/>
<path d="M25.3099 15.0945L20.7279 17.386L21.0633 18.0567L25.6453 15.7652L25.3099 15.0945Z" fill="#B5854B"/>
<path d="M20.1089 43.7976L15.1399 50.2827L17.9094 52.4048L22.8784 45.9196L20.1089 43.7976Z" fill="#47515D"/>
<path d="M12.9536 22.9944L18.5108 17.4372C17.0899 16.0163 15.1244 15.1401 12.9536 15.1401V22.9944Z" fill="white"/>
<path d="M12.9536 22.9944H20.8157C20.8157 20.8237 19.9395 18.8581 18.5108 17.4373L12.9536 22.9944Z" fill="#F4F4F4"/>
<path d="M12.9535 15.1401C10.7828 15.1401 8.81723 16.0163 7.39636 17.4372L12.9535 22.9944V15.1401Z" fill="#F4F4F4"/>
<path d="M12.9536 22.9944L18.5108 28.5515C19.9316 27.1307 20.8157 25.1652 20.8157 22.9944H12.9536Z" fill="white"/>
<path d="M12.9536 22.9944V30.8486C15.1244 30.8486 17.0899 29.9724 18.5108 28.5515L12.9536 22.9944Z" fill="#F4F4F4"/>
<path d="M7.39636 28.5515C8.81723 29.9724 10.7828 30.8486 12.9535 30.8486V22.9944L7.39636 28.5515Z" fill="white"/>
<path d="M12.9536 22.9944L7.39639 17.4373C5.97552 18.866 5.09143 20.8237 5.09143 22.9944H12.9536Z" fill="white"/>
<path d="M12.9536 22.9944H5.09143C5.09143 25.1652 5.96763 27.1307 7.39639 28.5515L12.9536 22.9944Z" fill="#F4F4F4"/>
<path d="M13.9956 22.9944C13.9956 22.4181 13.5298 21.9524 12.9536 21.9524C12.3773 21.9524 11.9116 22.4181 11.9116 22.9944C11.9116 23.5706 12.3773 24.0363 12.9536 24.0363C13.5298 24.0363 13.9956 23.5706 13.9956 22.9944Z" fill="#B5854B"/>
</g>
<defs>
<clipPath id="clip0_907_509">
<rect width="60" height="60" fill="white"/>
</clipPath>
</defs>
</svg>
