<svg width="20" height="20" viewBox="0 0 20 20" fill="none" xmlns="http://www.w3.org/2000/svg">
<g clip-path="url(#clip0_980_2733)">
<path d="M16.25 7.49986C15.8667 7.49986 15.5217 7.26652 15.3792 6.90986L14.6683 5.31736L13.0733 4.56986C12.72 4.42069 12.4925 4.07236 12.5 3.68902C12.5075 3.30569 12.7475 2.96569 13.1058 2.82986L14.7292 2.21486L15.3792 0.589023C15.5217 0.23319 15.8658 -0.000976562 16.25 -0.000976562C16.6342 -0.000976562 16.9783 0.232357 17.1208 0.589023L17.775 2.22486L19.4108 2.87902C19.7667 3.02152 20.0008 3.36569 20.0008 3.74986C20.0008 4.13402 19.7675 4.47819 19.4108 4.62069L17.775 5.27486L17.1208 6.91069C16.9783 7.26652 16.6342 7.50069 16.25 7.50069V7.49986ZM18.885 8.72736C17.8667 9.14819 16.7033 9.28986 15.4883 9.05069C13.2217 8.60402 11.3958 6.77819 10.9492 4.51152C10.71 3.29652 10.8508 2.13319 11.2725 1.11486C11.4925 0.582357 11.1025 -0.000143229 10.5267 -0.000143229H4.16667C1.86583 -0.000143229 0 1.86569 0 4.16652V15.8332C0 18.134 1.86583 19.9999 4.16667 19.9999H15.8333C18.1342 19.9999 20 18.134 20 15.8332V9.47319C20 8.89736 19.4175 8.50736 18.885 8.72736ZM11.415 15.8332C11.0458 15.8332 10.7225 15.5882 10.6217 15.2332L10.0858 13.3332H5.7475L5.21167 15.2332C5.11167 15.5882 4.7875 15.8332 4.41833 15.8332C3.87333 15.8332 3.47833 15.3132 3.62417 14.7882L6.2 5.53152C6.3175 5.02486 6.65083 4.59819 7.115 4.36069C7.58833 4.11736 8.13167 4.10236 8.6475 4.31902C9.13667 4.52402 9.51167 4.99986 9.65083 5.59819L12.21 14.789C12.3558 15.314 11.9617 15.834 11.4158 15.834L11.415 15.8332ZM15.8333 14.9999C15.8333 15.4599 15.46 15.8332 15 15.8332C14.54 15.8332 14.1667 15.4599 14.1667 14.9999V10.9065C14.1667 10.4465 14.54 10.0732 15 10.0732C15.46 10.0732 15.8333 10.4465 15.8333 10.9065V14.9999ZM7.825 5.97069L6.2175 11.6665H9.615L8.0075 5.97069C7.98333 5.87569 7.84833 5.87569 7.825 5.97069Z" fill="white"/>
</g>
<defs>
<clipPath id="clip0_980_2733">
<rect width="20" height="20" fill="white"/>
</clipPath>
</defs>
</svg>
