<svg width="70" height="70" viewBox="0 0 70 70" fill="none" xmlns="http://www.w3.org/2000/svg">
<g opacity="0.3" clip-path="url(#clip0_683_5832)">
<path d="M70 46.6664V61.2498C70 63.5704 69.0781 65.796 67.4372 67.437C65.7962 69.0779 63.5706 69.9998 61.25 69.9998H46.6667C42.5749 69.9956 38.5561 68.9154 35.0136 66.8677C31.471 64.82 28.5292 61.8767 26.4833 58.3331C28.6821 58.3174 30.8734 58.075 33.0225 57.6098C34.6592 59.6562 36.7354 61.3082 39.0973 62.4432C41.4592 63.5782 44.0462 64.1672 46.6667 64.1664H61.25C62.0235 64.1664 62.7654 63.8592 63.3124 63.3122C63.8594 62.7652 64.1667 62.0233 64.1667 61.2498V46.6664C64.166 44.045 63.5752 41.4574 62.4382 39.0955C61.3011 36.7335 59.6469 34.6578 57.5983 33.0223C58.0675 30.8736 58.3138 28.6823 58.3333 26.4831C61.8769 28.529 64.8202 31.4708 66.8679 35.0133C68.9157 38.5559 69.9958 42.5746 70 46.6664ZM52.4329 28.1485C52.7057 24.3908 52.1664 20.6184 50.8516 17.0876C49.5369 13.5569 47.4775 10.3505 44.8134 7.68641C42.1493 5.02231 38.9429 2.9629 35.4121 1.64814C31.8814 0.333381 28.109 -0.205932 24.3513 0.0668509C17.6923 0.82732 11.541 3.99611 7.05593 8.97652C2.57083 13.9569 0.0613292 20.4053 0 27.1073L0 41.8073C0 49.1923 4.39542 52.4998 8.75 52.4998H25.375C32.0798 52.4421 38.5321 49.9343 43.516 45.4489C48.5 40.9635 51.6715 34.8102 52.4329 28.1485V28.1485ZM40.6875 11.8152C42.7581 13.8904 44.3589 16.3862 45.3814 19.1336C46.4039 21.8811 46.8243 24.8162 46.6142 27.7402C45.9916 32.9426 43.489 37.738 39.5772 41.2238C35.6655 44.7095 30.6145 46.6452 25.375 46.6664H8.75C6.04333 46.6664 5.83333 42.9477 5.83333 41.8073V27.1073C5.85765 21.87 7.79522 16.8222 11.2814 12.9138C14.7676 9.00542 19.5621 6.50588 24.7625 5.8856C25.2467 5.8506 25.7308 5.8331 26.215 5.8331C28.902 5.8306 31.5632 6.35762 34.0465 7.38406C36.5298 8.4105 38.7864 9.91622 40.6875 11.8152Z" fill="#212020"/>
</g>
<defs>
<clipPath id="clip0_683_5832">
<rect width="70" height="70" fill="white"/>
</clipPath>
</defs>
</svg>
