<svg width="27" height="27" viewBox="0 0 27 27" fill="none" xmlns="http://www.w3.org/2000/svg">
<path d="M20.0569 19.3069C18.8565 17.8377 18.009 17.0898 18.009 13.0395C18.009 9.33043 16.115 8.009 14.5561 7.36721C14.349 7.28214 14.1541 7.08675 14.091 6.87407C13.8176 5.94341 13.051 5.12354 12.032 5.12354C11.013 5.12354 10.2459 5.94388 9.97526 6.87501C9.91216 7.09003 9.71724 7.28214 9.51017 7.36721C7.94941 8.00994 6.05724 9.3267 6.05724 13.0395C6.0549 17.0898 5.20744 17.8377 4.00707 19.3069C3.50972 19.9155 3.94537 20.8293 4.81527 20.8293H19.2533C20.1186 20.8293 20.5514 19.9127 20.0569 19.3069Z" stroke="#1B1B1B" stroke-width="1.25" stroke-linecap="round" stroke-linejoin="round"/>
<path d="M15.0234 20.8293V21.5772C15.0234 22.3707 14.7082 23.1316 14.1472 23.6926C13.5862 24.2536 12.8253 24.5688 12.0319 24.5688C11.2384 24.5688 10.4775 24.2536 9.91649 23.6926C9.35547 23.1316 9.04028 22.3707 9.04028 21.5772V20.8293" stroke="#1B1B1B" stroke-width="1.25" stroke-linecap="round" stroke-linejoin="round"/>
<circle cx="19.6685" cy="7.36728" r="7.17978" fill="white"/>
<circle cx="19.6685" cy="7.36723" r="3.58989" fill="#B5854B"/>
</svg>
