<svg width="8" height="10" viewBox="0 0 8 10" fill="none" xmlns="http://www.w3.org/2000/svg">
<path d="M7.24372 4.26788C7.24372 3.46304 6.924 2.69116 6.35489 2.12205C5.78577 1.55293 5.01389 1.23321 4.20905 1.23321C3.4042 1.23321 2.63232 1.55293 2.06321 2.12205C1.4941 2.69116 1.17437 3.46304 1.17437 4.26788C1.17437 5.51278 2.17042 7.13532 4.20905 9.07886C6.24767 7.13532 7.24372 5.51278 7.24372 4.26788ZM4.20905 10C1.73612 7.75237 0.5 5.8412 0.5 4.26788C0.5 3.28418 0.890774 2.34077 1.58635 1.64519C2.28194 0.949611 3.22535 0.558838 4.20905 0.558838C5.19275 0.558838 6.13616 0.949611 6.83174 1.64519C7.52732 2.34077 7.91809 3.28418 7.91809 4.26788C7.91809 5.8412 6.68197 7.75237 4.20905 10Z" fill="#B9B9B9"/>
<path d="M4.20912 5.27952C4.47741 5.27952 4.7347 5.17295 4.9244 4.98324C5.11411 4.79354 5.22068 4.53624 5.22068 4.26796C5.22068 3.99968 5.11411 3.74239 4.9244 3.55268C4.7347 3.36298 4.47741 3.2564 4.20912 3.2564C3.94084 3.2564 3.68355 3.36298 3.49384 3.55268C3.30414 3.74239 3.19757 3.99968 3.19757 4.26796C3.19757 4.53624 3.30414 4.79354 3.49384 4.98324C3.68355 5.17295 3.94084 5.27952 4.20912 5.27952ZM4.20912 5.95389C3.76199 5.95389 3.33316 5.77627 3.01699 5.46009C2.70082 5.14392 2.52319 4.7151 2.52319 4.26796C2.52319 3.82082 2.70082 3.392 3.01699 3.07583C3.33316 2.75966 3.76199 2.58203 4.20912 2.58203C4.65626 2.58203 5.08508 2.75966 5.40126 3.07583C5.71743 3.392 5.89505 3.82082 5.89505 4.26796C5.89505 4.7151 5.71743 5.14392 5.40126 5.46009C5.08508 5.77627 4.65626 5.95389 4.20912 5.95389Z" fill="#B9B9B9"/>
</svg>
