<svg width="14" height="11" viewBox="0 0 14 11" fill="none" xmlns="http://www.w3.org/2000/svg">
<path d="M13.1313 6.1996V1.66633C13.1309 1.37623 13.0155 1.09811 12.8105 0.89291C12.6054 0.687706 12.3274 0.572142 12.0373 0.571533H2.18031C1.88994 0.571736 1.61152 0.687118 1.40613 0.892366C1.20074 1.09761 1.08516 1.37596 1.08475 1.66633V6.19883C0.918863 6.29425 0.780972 6.43159 0.684897 6.5971C0.588823 6.76261 0.537942 6.95046 0.537354 7.14183L0.537354 8.23816C0.537759 8.52839 0.653233 8.80662 0.858459 9.01184C1.06368 9.21707 1.34191 9.33254 1.63215 9.33295V10.1548C1.63215 10.2274 1.66098 10.297 1.71231 10.3483C1.76364 10.3997 1.83326 10.4285 1.90585 10.4285H2.45401C2.50501 10.4283 2.55494 10.4138 2.59815 10.3867C2.64136 10.3596 2.67614 10.321 2.69857 10.2752L3.17007 9.33142H11.0452L11.5167 10.2752C11.5392 10.321 11.5739 10.3596 11.6171 10.3867C11.6604 10.4138 11.7103 10.4283 11.7613 10.4285H12.3087C12.3813 10.4285 12.4509 10.3997 12.5022 10.3483C12.5535 10.297 12.5824 10.2274 12.5824 10.1548V9.33218C12.8728 9.33218 13.1513 9.21699 13.3568 9.01189C13.5623 8.80679 13.6781 8.52852 13.6787 8.23816V7.14183C13.678 6.95059 13.627 6.76289 13.531 6.59753C13.4349 6.43217 13.2971 6.29495 13.1313 6.1996ZM1.63138 1.66709C1.63158 1.52198 1.68932 1.38286 1.79193 1.28025C1.89455 1.17763 2.03366 1.1199 2.17878 1.11969H12.0373C12.1824 1.1199 12.3215 1.17763 12.4241 1.28025C12.5267 1.38286 12.5845 1.52198 12.5847 1.66709V6.0478H11.884C11.9169 6.00793 11.9537 5.97113 11.9844 5.93127C12.0167 5.88538 12.0341 5.83062 12.0341 5.77449C12.0341 5.71835 12.0167 5.66359 11.9844 5.6177C11.8609 5.422 11.6917 5.25925 11.4914 5.14345C11.2911 5.02766 11.0656 4.9623 10.8344 4.95301H8.85487C8.62367 4.9623 8.39819 5.02766 8.19786 5.14345C7.99752 5.25925 7.82834 5.422 7.70488 5.6177C7.67254 5.66359 7.65518 5.71835 7.65518 5.77449C7.65518 5.83062 7.67254 5.88538 7.70488 5.93127C7.73555 5.97497 7.77234 6.00793 7.80531 6.0478H6.40999C6.44295 6.00793 6.47975 5.97113 6.51042 5.93127C6.54276 5.88538 6.56011 5.83062 6.56011 5.77449C6.56011 5.71835 6.54276 5.66359 6.51042 5.6177C6.38696 5.422 6.21777 5.25925 6.01744 5.14345C5.81711 5.02766 5.59163 4.9623 5.36043 4.95301H3.37937C3.14817 4.9623 2.92269 5.02766 2.72236 5.14345C2.52202 5.25925 2.35284 5.422 2.22938 5.6177C2.19704 5.66359 2.17968 5.71835 2.17968 5.77449C2.17968 5.83062 2.19704 5.88538 2.22938 5.93127C2.26004 5.97497 2.29684 6.00793 2.32981 6.0478H1.63215L1.63138 1.66709ZM11.4086 5.77334C11.3368 5.85573 11.2489 5.92252 11.1502 5.9696C11.0516 6.01667 10.9444 6.04302 10.8352 6.04703H8.85487C8.74566 6.04302 8.63842 6.01667 8.53979 5.9696C8.44115 5.92252 8.35322 5.85573 8.28141 5.77334C8.35322 5.69095 8.44115 5.62415 8.53979 5.57708C8.63842 5.53 8.74566 5.50365 8.85487 5.49964H10.8367C10.9458 5.50375 11.0529 5.53016 11.1514 5.57723C11.2499 5.6243 11.3377 5.69104 11.4094 5.77334H11.4086ZM5.93312 5.77334C5.86131 5.85573 5.77338 5.92252 5.67475 5.9696C5.57611 6.01667 5.46888 6.04302 5.35966 6.04703H3.37937C3.27015 6.04302 3.16292 6.01667 3.06428 5.9696C2.96565 5.92252 2.87772 5.85573 2.80591 5.77334C2.87772 5.69095 2.96565 5.62415 3.06428 5.57708C3.16292 5.53 3.27015 5.50365 3.37937 5.49964H5.36119C5.47028 5.50375 5.57737 5.53016 5.67586 5.57723C5.77435 5.6243 5.86217 5.69104 5.93389 5.77334H5.93312ZM2.28381 9.87958H2.18031V9.33218H2.55904L2.28381 9.87958ZM12.035 9.87958H11.93L11.6563 9.33218H12.0373L12.035 9.87958ZM13.1313 8.23816C13.1311 8.38327 13.0734 8.52239 12.9708 8.625C12.8681 8.72762 12.729 8.78535 12.5839 8.78555H1.63215C1.48703 8.78535 1.34792 8.72762 1.2453 8.625C1.14269 8.52239 1.08495 8.38327 1.08475 8.23816V7.14183C1.08495 6.99671 1.14269 6.85759 1.2453 6.75498C1.34792 6.65237 1.48703 6.59464 1.63215 6.59443H12.5832C12.7283 6.59464 12.8674 6.65237 12.97 6.75498C13.0726 6.85759 13.1303 6.99671 13.1305 7.14183L13.1313 8.23816Z" fill="#737373" stroke="#737373" stroke-width="0.1"/>
</svg>
