<svg width="25" height="25" viewBox="0 0 25 25" fill="none" xmlns="http://www.w3.org/2000/svg">
<path fill-rule="evenodd" clip-rule="evenodd" d="M11.25 4.5C7.38401 4.5 4.25 7.63401 4.25 11.5C4.25 15.366 7.38401 18.5 11.25 18.5C15.116 18.5 18.25 15.366 18.25 11.5C18.25 7.63401 15.116 4.5 11.25 4.5ZM2.25 11.5C2.25 6.52944 6.27944 2.5 11.25 2.5C16.2206 2.5 20.25 6.52944 20.25 11.5C20.25 16.4706 16.2206 20.5 11.25 20.5C6.27944 20.5 2.25 16.4706 2.25 11.5Z" fill="#47515D"/>
<path fill-rule="evenodd" clip-rule="evenodd" d="M16.1928 16.4429C16.5833 16.0524 17.2165 16.0524 17.607 16.4429L21.957 20.7929C22.3475 21.1834 22.3475 21.8166 21.957 22.2071C21.5665 22.5977 20.9333 22.5977 20.5428 22.2071L16.1928 17.8571C15.8023 17.4666 15.8023 16.8334 16.1928 16.4429Z" fill="#47515D"/>
</svg>
