<svg width="20" height="16" viewBox="0 0 20 16" fill="none" xmlns="http://www.w3.org/2000/svg">
<path d="M15.069 2.546L17.753 0.187C17.896 0.0619998 18.073 0 18.25 0C18.668 0 19 0.34 19 0.75C19 0.957 18.914 1.164 18.746 1.312L2.246 15.813C2.104 15.939 1.927 16 1.75 16C1.335 16 1 15.666 1 15.25C1 15.043 1.086 14.836 1.253 14.688L3.691 12.545C2.277 11.413 1.064 9.993 0.144 8.517C0.0480001 8.358 0 8.179 0 8C0 7.821 0.049 7.642 0.145 7.483C2.256 4.093 5.92 1 9.998 1C11.813 1 13.534 1.593 15.069 2.546ZM17.387 4.376C18.354 5.319 19.191 6.389 19.862 7.493C19.954 7.649 20 7.825 20 8C20 8.175 19.954 8.351 19.862 8.507C17.794 11.91 14.141 15 9.998 15C8.7 15 7.445 14.687 6.268 14.151L8.892 11.844C9.244 11.946 9.616 12 10 12C12.208 12 14 10.208 14 8C14 7.794 13.984 7.592 13.954 7.394L17.387 4.376ZM12.455 4.843C11.777 4.315 10.925 4 10 4C7.792 4 6 5.792 6 8C6 8.741 6.202 9.435 6.553 10.03L7.713 9.011C7.576 8.701 7.5 8.36 7.5 8C7.5 6.62 8.62 5.5 10 5.5C10.474 5.5 10.918 5.632 11.296 5.862L12.455 4.843Z" fill="black"/>
</svg>
