<svg width="13" height="11" viewBox="0 0 13 11" fill="none" xmlns="http://www.w3.org/2000/svg">
<path fill-rule="evenodd" clip-rule="evenodd" d="M0 1.97505C0 1.66342 0.123794 1.36455 0.34415 1.1442C0.564505 0.923844 0.863371 0.800049 1.175 0.800049H11.3623C11.6739 0.800049 11.9727 0.923844 12.1931 1.1442C12.4135 1.36455 12.5373 1.66342 12.5373 1.97505V9.02505C12.5373 9.33668 12.4135 9.63554 12.1931 9.8559C11.9727 10.0763 11.6739 10.2001 11.3623 10.2001H1.175C0.86384 10.2001 0.565384 10.0766 0.345107 9.85686C0.124829 9.63709 0.000718062 9.33892 0 9.02776L0 1.97505ZM1.175 1.58368C1.0712 1.58368 0.971658 1.62492 0.898263 1.69831C0.824868 1.77171 0.783635 1.87125 0.783635 1.97505V9.02505C0.783635 9.07644 0.793758 9.12733 0.813426 9.17482C0.833093 9.2223 0.861921 9.26544 0.898263 9.30179C0.934605 9.33813 0.977748 9.36695 1.02523 9.38662C1.07271 9.40629 1.12361 9.41642 1.175 9.41642H11.3623C11.465 9.41547 11.5632 9.37419 11.6357 9.30148C11.7082 9.22877 11.7493 9.13046 11.75 9.02776V1.97776C11.75 1.87396 11.7088 1.77442 11.6354 1.70102C11.562 1.62763 11.4624 1.5864 11.3586 1.5864L1.175 1.58368Z" fill="#737373"/>
<path fill-rule="evenodd" clip-rule="evenodd" d="M1.56738 2.75958C1.56726 2.70811 1.5773 2.65712 1.59692 2.60953C1.61653 2.56194 1.64534 2.51869 1.68169 2.48226C1.71805 2.44582 1.76123 2.41691 1.80877 2.39719C1.85631 2.37746 1.90728 2.36731 1.95875 2.36731H4.30875C4.41267 2.36731 4.51233 2.40859 4.58581 2.48207C4.65929 2.55555 4.70057 2.65521 4.70057 2.75913C4.70057 2.86304 4.65929 2.9627 4.58581 3.03618C4.51233 3.10966 4.41267 3.15094 4.30875 3.15094H2.35102V5.10958C2.35102 5.2135 2.30974 5.31316 2.23626 5.38664C2.16278 5.46012 2.06312 5.5014 1.9592 5.5014C1.85529 5.5014 1.75563 5.46012 1.68215 5.38664C1.60867 5.31316 1.56738 5.2135 1.56738 5.10958V2.75958ZM10.9674 8.24502C10.9674 8.29649 10.9572 8.34746 10.9375 8.395C10.9178 8.44254 10.8889 8.48573 10.8524 8.52208C10.816 8.55843 10.7727 8.58724 10.7252 8.60686C10.6776 8.62647 10.6266 8.63651 10.5751 8.63639H8.22512C8.1212 8.63639 8.02154 8.59511 7.94806 8.52163C7.87458 8.44815 7.8333 8.34848 7.8333 8.24457C7.8333 8.14065 7.87458 8.04099 7.94806 7.96751C8.02154 7.89403 8.1212 7.85275 8.22512 7.85275H10.1838V5.89412C10.1838 5.7902 10.225 5.69054 10.2985 5.61706C10.372 5.54358 10.4717 5.5023 10.5756 5.5023C10.6795 5.5023 10.7791 5.54358 10.8526 5.61706C10.9261 5.69054 10.9674 5.7902 10.9674 5.89412V8.24502Z" fill="#737373"/>
</svg>
