<svg width="100" height="100" viewBox="0 0 100 100" fill="none" xmlns="http://www.w3.org/2000/svg">
<g clip-path="url(#clip0_1139_1795)">
<path d="M87.1508 80.2503C85.8318 78.9227 85.6475 76.8717 86.4049 75.1604C87.6149 72.4265 88.2786 69.3841 88.2786 66.2089C88.2786 53.948 78.4698 44.1393 66.2089 44.1393C53.948 44.1393 44.1393 53.948 44.1393 66.2089C44.1393 78.4698 53.948 88.2786 66.2089 88.2786C69.3576 88.2786 72.3727 87.6109 75.0966 86.4135C76.7889 85.6696 78.81 85.8574 80.1277 87.154L90.3547 97.2171C91.9204 98.7577 94.4354 98.7475 95.9886 97.1943L97.1807 96.0022C98.7392 94.4437 98.7433 91.9181 97.1898 90.3545L87.1508 80.2503ZM66.2089 78.4698C62.9571 78.4698 59.8385 77.1781 57.5392 74.8787C55.2398 72.5793 53.948 69.4607 53.948 66.2089C53.948 62.9571 55.2398 59.8385 57.5392 57.5392C59.8385 55.2398 62.9571 53.948 66.2089 53.948C69.4607 53.948 72.5793 55.2398 74.8787 57.5392C77.1781 59.8385 78.4698 62.9571 78.4698 66.2089C78.4698 69.4607 77.1781 72.5793 74.8787 74.8787C72.5793 77.1781 69.4607 78.4698 66.2089 78.4698ZM18.7131 83.3742C16.504 83.3742 14.7131 81.5833 14.7131 79.3742V48.1393C14.7131 45.9302 12.9222 44.1393 10.7131 44.1393H10.4238C6.75789 44.1393 5.0231 39.6185 7.74797 37.1661L46.3678 2.40827C47.889 1.03918 50.1983 1.03918 51.7195 2.40827L92.3857 39.0078C94.3909 40.8125 93.1143 44.1393 90.4165 44.1393C89.6147 44.1393 88.8522 43.8072 88.2749 43.2507C82.5571 37.7384 74.7813 34.3306 66.2089 34.3306C48.6513 34.3306 34.3306 48.6513 34.3306 66.2089C34.3306 69.9082 34.9677 73.4733 36.1342 76.7768C37.1909 79.7695 35.1851 83.3742 32.0113 83.3742H18.7131Z" fill="#B5854B"/>
</g>
<defs>
<clipPath id="clip0_1139_1795">
<rect width="100" height="100" fill="white"/>
</clipPath>
</defs>
</svg>
