<svg width="24" height="24" viewBox="0 0 24 24" fill="none" xmlns="http://www.w3.org/2000/svg">
<path d="M23.52 19.2C23.0311 19.1999 22.5479 19.095 22.103 18.8923C21.6443 18.684 21.1467 18.5753 20.6429 18.5736C20.138 18.5756 19.6393 18.6842 19.1793 18.8923C18.7345 19.0949 18.2514 19.1997 17.7626 19.1997C17.2738 19.1997 16.7907 19.0949 16.3459 18.8923C15.8857 18.6853 15.3874 18.5768 14.8829 18.5736C14.3781 18.5759 13.8794 18.6845 13.4193 18.8923C12.9736 19.0948 12.4898 19.1996 12.0002 19.1996C11.5107 19.1996 11.0268 19.0948 10.5811 18.8923C10.1232 18.6845 9.62662 18.5759 9.12382 18.5736C8.61917 18.5759 8.12067 18.6845 7.66078 18.8923C7.2152 19.0949 6.73139 19.1998 6.2419 19.1998C5.75241 19.1998 5.2686 19.0949 4.82302 18.8923C4.36326 18.6841 3.86468 18.5755 3.35998 18.5736C2.85709 18.5765 2.36042 18.6851 1.90222 18.8923C1.45533 19.0946 0.970518 19.1995 0.47998 19.2V17.0899C0.969771 17.0872 1.4538 16.9841 1.90222 16.787C2.35919 16.5755 2.85644 16.4652 3.35998 16.4635C3.88126 16.4635 4.38094 16.5835 4.82302 16.787C5.26891 16.9841 5.75059 17.0872 6.23806 17.0899C6.72809 17.0879 7.21243 16.9848 7.66078 16.787C8.11943 16.575 8.61852 16.4646 9.12382 16.4635C9.64126 16.4635 10.1385 16.5835 10.5811 16.787C11.0289 16.9843 11.5126 17.0874 12.0019 17.0899C12.4902 17.0874 12.9727 16.9843 13.4193 16.787C13.8782 16.575 14.3774 16.4647 14.8829 16.4635C15.3979 16.4635 15.8971 16.5835 16.3459 16.787C16.7755 16.9757 17.2579 17.0899 17.7619 17.0899C18.2502 17.0878 18.7328 16.9847 19.1793 16.787C19.6381 16.5747 20.1374 16.4643 20.6429 16.4635C21.1641 16.4635 21.6629 16.5835 22.103 16.787C22.5494 16.9846 23.0318 17.0877 23.52 17.0899V19.2ZM20.183 13.2307C21.696 13.2307 22.9238 12.0067 22.9238 10.5053C22.9238 9.0024 21.696 7.78464 20.183 7.78464C18.6677 7.78464 17.4413 9.00288 17.4413 10.5053C17.4413 12.0067 18.5587 13.2307 20.183 13.2307ZM4.21966 14.7629C4.4323 14.8133 4.63294 14.8867 4.8235 14.9722C5.26856 15.1728 5.75083 15.2776 6.23902 15.2798C6.74302 15.2798 7.23214 15.1656 7.66126 14.9722C8.12061 14.7621 8.6192 14.6515 9.1243 14.6477C9.64174 14.6477 10.14 14.7734 10.5816 14.9722C11.0284 15.173 11.5125 15.2778 12.0024 15.2798C12.5016 15.2798 12.9902 15.1656 13.4193 14.9722C13.8789 14.7621 14.3776 14.6515 14.8829 14.6477C15.3984 14.6477 15.8981 14.7734 16.3459 14.9722C16.776 15.1651 17.2579 15.2798 17.7629 15.2798C18.1301 15.2798 18.4838 15.2179 18.8174 15.1138L14.2454 6.92688L19.5633 5.96352C20.3438 5.81568 20.9102 5.20704 20.9102 4.428C20.9102 3.5688 20.2061 2.88 19.3445 2.88L19.1669 2.88528L10.9521 4.36944C10.3757 4.50048 9.61198 5.33856 10.0469 6.36672L10.1169 6.53232L12.2606 10.3738L4.21966 14.7629Z" fill="#B5854B"/>
</svg>
