<svg width="102" height="98" viewBox="0 0 102 98" fill="none" xmlns="http://www.w3.org/2000/svg">
<path d="M51.0468 0.0100802C23.1743 -0.0302407 0.520796 21.9043 0.500004 48.9697C0.489607 75.9948 23.0392 97.9596 50.8388 98C78.8465 98.0403 101.458 76.1763 101.5 49.0504C101.531 21.9951 78.94 0.0302407 51.0468 0V0.0100802ZM81.6638 52.8506H51.0468C50.8388 52.8506 50.6517 52.8405 50.4646 52.7901C49.1131 52.5482 48.0942 51.389 48.0942 50.0282V20.3621C48.0942 18.8097 49.4042 17.5396 51.0052 17.5396C51.8057 17.5396 52.5334 17.8521 53.0533 18.3763C53.5939 18.8803 53.9161 19.5859 53.9161 20.3621V47.2057H81.6638C83.2649 47.2057 84.5748 48.4758 84.5748 50.0282C84.5748 51.5805 83.2649 52.8506 81.6638 52.8506Z" fill="#B5854B"/>
</svg>
