<svg width="100" height="53" viewBox="0 0 100 53" fill="none" xmlns="http://www.w3.org/2000/svg">
<g clip-path="url(#clip0_923_489)">
<path fill-rule="evenodd" clip-rule="evenodd" d="M19.226 11.1343C7.51485 20.3231 0 34.6221 0 50.6998H21.7203C21.7203 40.6352 26.9443 31.801 34.791 26.7606L19.226 11.1343Z" fill="#FFD855"/>
<path fill-rule="evenodd" clip-rule="evenodd" d="M99.9999 50.6998C99.9999 34.6221 92.469 20.3231 80.7739 11.1343L65.1929 26.7606C73.0556 31.801 78.2636 40.6352 78.2636 50.6998H99.9999Z" fill="#FF5B55"/>
<path fill-rule="evenodd" clip-rule="evenodd" d="M79.0507 9.82314C70.8507 3.96058 60.8255 0.5 49.9975 0.5C39.1695 0.5 29.1283 3.96058 20.9497 9.82314L36.6966 25.6483C40.6628 23.515 45.1803 22.3221 49.9975 22.3221C54.8147 22.3221 59.3375 23.515 63.2877 25.6483L79.0507 9.82314Z" fill="#B7E14A"/>
<path fill-rule="evenodd" clip-rule="evenodd" d="M49.7606 50.8805C51.7701 50.8624 53.3681 49.2064 53.3428 47.2001L49.8669 25.6864L46.0481 47.3013C46.0883 49.3045 47.7468 50.915 49.7531 50.882L49.7606 50.8805Z" fill="#3F3E40"/>
</g>
<defs>
<clipPath id="clip0_923_489">
<rect width="100" height="52" fill="white" transform="translate(0 0.5)"/>
</clipPath>
</defs>
</svg>
