<svg width="30" height="21" viewBox="0 0 30 21" fill="none" xmlns="http://www.w3.org/2000/svg">
<g clip-path="url(#clip0_361_887)">
<path d="M14.8311 2.4029e-05H14.7917C9.3755 2.4029e-05 4.44925 2.10002 0.783 5.52915L0.794375 5.51865L0.125 6.14252L3.50425 9.49027L4.13425 8.91278C6.93513 6.32977 10.6915 4.74515 14.818 4.74515C18.9445 4.74515 22.7009 6.3289 25.5123 8.9224L25.5018 8.91278L26.1318 9.49027L29.511 6.14252L28.8416 5.51865C25.0556 1.9659 20.0563 -0.00794379 14.8644 2.4029e-05H14.8285H14.8311Z" fill="#B5854B"/>
<path d="M24.1045 10.5263C21.5735 8.22355 18.2731 6.95021 14.8514 6.95625H14.2616L14.2555 6.96938C11.0219 7.09596 7.93654 8.35886 5.54224 10.5359L5.55362 10.5254L4.86499 11.1493L8.27137 14.5224L8.90137 13.9711C10.4685 12.5659 12.551 11.7075 14.8339 11.7075C17.1167 11.7075 19.1992 12.5668 20.7751 13.979L20.7664 13.972L21.3964 14.5233L24.8027 11.151L24.1045 10.5263Z" fill="#B5854B"/>
<path d="M14.838 21L19.6286 16.2619L18.8674 15.638C17.7178 14.7325 16.2827 14.2671 14.8205 14.3255H14.8319H14.7741C13.3337 14.3231 11.9314 14.7883 10.778 15.6511L10.7955 15.6389L10.0413 16.2627L10.7369 16.9514L14.2019 20.377L14.838 21Z" fill="#B5854B"/>
</g>
<defs>
<clipPath id="clip0_361_887">
<rect width="29.75" height="21" fill="white" transform="translate(0.125)"/>
</clipPath>
</defs>
</svg>
