<svg width="22" height="17" viewBox="0 0 22 17" fill="none" xmlns="http://www.w3.org/2000/svg">
<rect x="0.930176" y="0.949905" width="20.1399" height="15.1002" rx="7.55009" fill="white"/>
<path fill-rule="evenodd" clip-rule="evenodd" d="M0.930176 2.83743C0.930176 2.33682 1.12904 1.85673 1.48302 1.50275C1.837 1.14877 2.3171 0.949905 2.8177 0.949905H19.1825C19.6831 0.949905 20.1632 1.14877 20.5172 1.50275C20.8712 1.85673 21.07 2.33682 21.07 2.83743V14.1626C21.07 14.6632 20.8712 15.1433 20.5172 15.4972C20.1632 15.8512 19.6831 16.0501 19.1825 16.0501H2.8177C2.31785 16.0501 1.83841 15.8518 1.48456 15.4988C1.1307 15.1457 0.931329 14.6668 0.930176 14.1669L0.930176 2.83743ZM2.8177 2.20874C2.65096 2.20874 2.49105 2.27497 2.37315 2.39288C2.25524 2.51078 2.18901 2.67069 2.18901 2.83743V14.1626C2.18901 14.2451 2.20527 14.3269 2.23686 14.4031C2.26846 14.4794 2.31477 14.5487 2.37315 14.6071C2.43153 14.6655 2.50083 14.7118 2.57711 14.7434C2.65338 14.775 2.73514 14.7912 2.8177 14.7912H19.1825C19.3475 14.7897 19.5053 14.7234 19.6218 14.6066C19.7383 14.4898 19.8043 14.3319 19.8054 14.1669V2.84178C19.8054 2.67504 19.7392 2.51513 19.6213 2.39723C19.5034 2.27933 19.3434 2.21309 19.1767 2.21309L2.8177 2.20874Z" fill="#B5854B"/>
<path fill-rule="evenodd" clip-rule="evenodd" d="M3.448 4.09771C3.44781 4.01503 3.46393 3.93312 3.49544 3.85668C3.52695 3.78024 3.57323 3.71076 3.63162 3.65222C3.69002 3.59369 3.75939 3.54725 3.83576 3.51557C3.91214 3.48388 3.99401 3.46757 4.07669 3.46758H7.85173C8.01867 3.46758 8.17876 3.53389 8.2968 3.65193C8.41484 3.76996 8.48115 3.93006 8.48115 4.09699C8.48115 4.26392 8.41484 4.42402 8.2968 4.54206C8.17876 4.6601 8.01867 4.72641 7.85173 4.72641H4.70683V7.87276C4.70683 8.03969 4.64052 8.19979 4.52248 8.31782C4.40444 8.43586 4.24435 8.50217 4.07742 8.50217C3.91048 8.50217 3.75039 8.43586 3.63235 8.31782C3.51431 8.19979 3.448 8.03969 3.448 7.87276V4.09771ZM18.5482 12.9095C18.5482 12.9922 18.5319 13.0741 18.5002 13.1505C18.4685 13.2268 18.4221 13.2962 18.3635 13.3546C18.305 13.413 18.2355 13.4593 18.1591 13.4908C18.0826 13.5223 18.0007 13.5384 17.918 13.5382H14.143C13.9761 13.5382 13.816 13.4719 13.6979 13.3539C13.5799 13.2358 13.5136 13.0757 13.5136 12.9088C13.5136 12.7419 13.5799 12.5818 13.6979 12.4637C13.816 12.3457 13.9761 12.2794 14.143 12.2794H17.2893V9.13304C17.2893 8.96611 17.3557 8.80602 17.4737 8.68798C17.5917 8.56994 17.7518 8.50363 17.9188 8.50363C18.0857 8.50363 18.2458 8.56994 18.3638 8.68798C18.4819 8.80602 18.5482 8.96611 18.5482 9.13304V12.9095Z" fill="#B5854B"/>
</svg>
