<svg width="20" height="22" viewBox="0 0 20 22" fill="none" xmlns="http://www.w3.org/2000/svg">
<path d="M18.8793 10.3838H18.2217V10.0549C18.2213 9.79344 18.1173 9.54275 17.9324 9.35783C17.7475 9.17292 17.4968 9.06888 17.2353 9.06851H12.6305C12.369 9.06888 12.1183 9.17292 11.9334 9.35783C11.7485 9.54275 11.6445 9.79344 11.6441 10.0549V10.3838H2.43323V3.80062C2.44419 3.31035 2.63736 2.84173 2.97506 2.48614C3.31277 2.13055 3.7708 1.91348 4.25986 1.87726C4.74892 1.84103 5.23394 1.98824 5.62035 2.2902C6.00676 2.59215 6.26687 3.02719 6.34995 3.51049C5.89666 3.5933 5.48657 3.83195 5.19064 4.18515C4.89471 4.53836 4.73154 4.98389 4.72938 5.44468V5.77349C4.72938 5.8607 4.76402 5.94433 4.82568 6.00599C4.88735 6.06766 4.97098 6.1023 5.05819 6.1023H8.35459C8.4418 6.1023 8.52543 6.06766 8.5871 6.00599C8.64876 5.94433 8.6834 5.8607 8.6834 5.77349V5.4502C8.6829 4.98181 8.51588 4.52884 8.21218 4.17225C7.90847 3.81565 7.48788 3.57865 7.02553 3.50359C6.98541 2.8074 6.67037 2.15567 6.14973 1.69177C5.62908 1.22786 4.94547 0.989781 4.24929 1.0299C3.5531 1.07003 2.90137 1.38506 2.43747 1.90571C1.97356 2.42636 1.73548 3.10996 1.7756 3.80615V10.3838H1.11798C0.885029 10.3829 0.65932 10.4647 0.480934 10.6145C0.302548 10.7643 0.183031 10.9725 0.143606 11.2021C0.104181 11.4317 0.1474 11.6678 0.265588 11.8686C0.383776 12.0693 0.569284 12.2217 0.789169 12.2986V14.9913C0.791163 16.1557 1.23397 17.2762 2.02853 18.1274C2.82309 18.9786 3.91048 19.4974 5.07201 19.5794V19.9248C5.06336 20.0595 5.08243 20.1944 5.12803 20.3214C5.17363 20.4484 5.2448 20.5647 5.33713 20.6631C5.42946 20.7615 5.541 20.8398 5.66484 20.8934C5.78867 20.947 5.92218 20.9746 6.0571 20.9745C6.19203 20.9744 6.3255 20.9466 6.44926 20.8929C6.57302 20.8391 6.68444 20.7606 6.77664 20.6621C6.86883 20.5635 6.93984 20.4472 6.98526 20.3201C7.03069 20.1931 7.04956 20.0581 7.04073 19.9234V19.5946H12.9593V19.9234C12.9593 20.185 13.0633 20.4359 13.2483 20.6209C13.4332 20.8059 13.6841 20.9099 13.9458 20.9099C14.2074 20.9099 14.4583 20.8059 14.6433 20.6209C14.8283 20.4359 14.9322 20.185 14.9322 19.9234V19.578C16.0923 19.4943 17.1777 18.975 17.9708 18.1243C18.7639 17.2735 19.2059 16.1543 19.2081 14.9913V12.2972C19.4287 12.2211 19.615 12.069 19.7338 11.8681C19.8526 11.6673 19.8961 11.4308 19.8566 11.2008C19.8171 10.9708 19.6971 10.7624 19.5181 10.6127C19.339 10.4631 19.1127 10.3819 18.8793 10.3838ZM8.02578 5.4502H5.40082C5.42246 5.11683 5.57015 4.80419 5.81391 4.57574C6.05767 4.3473 6.37922 4.22017 6.7133 4.22017C7.04737 4.22017 7.36893 4.3473 7.61269 4.57574C7.85645 4.80419 8.00414 5.11683 8.02578 5.4502ZM16.9064 10.3838V10.0549C16.9064 9.96774 16.9411 9.8841 17.0028 9.82244C17.0644 9.76077 17.1481 9.72613 17.2353 9.72613C17.3225 9.72613 17.4061 9.76077 17.4678 9.82244C17.5294 9.8841 17.5641 9.96774 17.5641 10.0549V10.3838H16.9064ZM12.3017 10.0549C12.3017 9.96774 12.3364 9.8841 12.398 9.82244C12.4597 9.76077 12.5433 9.72613 12.6305 9.72613H16.3096C16.2704 9.83138 16.2498 9.94264 16.2488 10.0549V13.6733H13.2881C13.2009 13.6733 13.1173 13.7079 13.0556 13.7696C12.994 13.8312 12.9593 13.9149 12.9593 14.0021C12.9593 14.0893 12.994 14.1729 13.0556 14.2346C13.1173 14.2962 13.2009 14.3309 13.2881 14.3309H16.2488V14.9913H12.3017V10.0549ZM6.38034 19.9234C6.38034 20.0106 6.3457 20.0943 6.28404 20.1559C6.22237 20.2176 6.13874 20.2522 6.05153 20.2522C5.96433 20.2522 5.88069 20.2176 5.81903 20.1559C5.75736 20.0943 5.72272 20.0106 5.72272 19.9234V19.5946H6.38034V19.9234ZM14.2746 19.9234C14.2746 19.9666 14.2661 20.0094 14.2495 20.0493C14.233 20.0892 14.2088 20.1254 14.1783 20.1559C14.1477 20.1865 14.1115 20.2107 14.0716 20.2272C14.0317 20.2437 13.9889 20.2522 13.9458 20.2522C13.9026 20.2522 13.8598 20.2437 13.8199 20.2272C13.78 20.2107 13.7438 20.1865 13.7133 20.1559C13.6827 20.1254 13.6585 20.0892 13.642 20.0493C13.6255 20.0094 13.617 19.9666 13.617 19.9234V19.5946H14.2746V19.9234ZM14.6034 18.937H5.39391C4.34764 18.9359 3.34453 18.5199 2.60457 17.7802C1.86462 17.0405 1.44825 16.0375 1.44679 14.9913V12.3663H9.99865C10.0859 12.3663 10.1695 12.3317 10.2312 12.27C10.2928 12.2083 10.3275 12.1247 10.3275 12.0375C10.3275 11.9503 10.2928 11.8666 10.2312 11.805C10.1695 11.7433 10.0859 11.7087 9.99865 11.7087H1.11798C1.07402 11.7088 1.0305 11.6999 0.990108 11.6826C0.949715 11.6652 0.913302 11.6398 0.883115 11.6078C0.851968 11.5771 0.827538 11.5402 0.811367 11.4995C0.795197 11.4589 0.787638 11.4153 0.789169 11.3716C0.789169 11.2844 0.823812 11.2007 0.885476 11.1391C0.94714 11.0774 1.03077 11.0428 1.11798 11.0428H11.6441V14.9913C11.6445 15.1062 11.6751 15.219 11.7328 15.3184C11.7905 15.4178 11.8733 15.5003 11.9729 15.5577V16.3065C11.9729 16.3497 11.9814 16.3924 11.9979 16.4323C12.0145 16.4722 12.0387 16.5085 12.0692 16.539C12.0997 16.5695 12.136 16.5938 12.1759 16.6103C12.2158 16.6268 12.2585 16.6353 12.3017 16.6353C12.3449 16.6353 12.3876 16.6268 12.4275 16.6103C12.4674 16.5938 12.5037 16.5695 12.5342 16.539C12.5647 16.5085 12.589 16.4722 12.6055 16.4323C12.622 16.3924 12.6305 16.3497 12.6305 16.3065V15.6489H13.2881V16.3065C13.2881 16.3497 13.2966 16.3924 13.3132 16.4323C13.3297 16.4722 13.3539 16.5085 13.3844 16.539C13.415 16.5695 13.4512 16.5938 13.4911 16.6103C13.531 16.6268 13.5738 16.6353 13.617 16.6353C13.6601 16.6353 13.7029 16.6268 13.7428 16.6103C13.7827 16.5938 13.8189 16.5695 13.8495 16.539C13.88 16.5085 13.9042 16.4722 13.9207 16.4323C13.9373 16.3924 13.9458 16.3497 13.9458 16.3065V15.6489H14.6034V16.3065C14.6034 16.3937 14.638 16.4773 14.6997 16.539C14.7614 16.6007 14.845 16.6353 14.9322 16.6353C15.0194 16.6353 15.103 16.6007 15.1647 16.539C15.2264 16.4773 15.261 16.3937 15.261 16.3065V15.6489H15.9186V16.3065C15.9186 16.3497 15.9271 16.3924 15.9437 16.4323C15.9602 16.4722 15.9844 16.5085 16.0149 16.539C16.0455 16.5695 16.0817 16.5938 16.1216 16.6103C16.1615 16.6268 16.2043 16.6353 16.2474 16.6353C16.2906 16.6353 16.3334 16.6268 16.3733 16.6103C16.4132 16.5938 16.4494 16.5695 16.4799 16.539C16.5105 16.5085 16.5347 16.4722 16.5512 16.4323C16.5678 16.3924 16.5763 16.3497 16.5763 16.3065V15.5577C16.676 15.5005 16.7588 15.418 16.8166 15.3185C16.8743 15.2191 16.9048 15.1062 16.9051 14.9913V12.3663H18.5491V14.9913C18.548 16.0378 18.1318 17.0411 17.3918 17.7811C16.6518 18.5211 15.6485 18.9373 14.602 18.9384L14.6034 18.937ZM18.8862 11.7004H16.9064V11.0428H18.8793C18.9233 11.0426 18.9668 11.0515 19.0072 11.0689C19.0476 11.0862 19.084 11.1117 19.1142 11.1436C19.1443 11.1734 19.1681 11.2089 19.1843 11.2481C19.2004 11.2872 19.2085 11.3292 19.2081 11.3716C19.2081 11.4588 19.1735 11.5424 19.1118 11.6041C19.0502 11.6657 18.9665 11.7004 18.8793 11.7004H18.8862Z" fill="#B5854B" stroke="#B5854B" stroke-width="0.2"/>
<path d="M7.03921 7.08875C7.03921 7.00155 7.00458 6.91792 6.94291 6.85625C6.88125 6.79459 6.79762 6.75993 6.71041 6.75993C6.62321 6.75993 6.53957 6.79459 6.47791 6.85625C6.41625 6.91792 6.38159 7.00155 6.38159 7.08875V7.41755C6.38159 7.50476 6.41625 7.58841 6.47791 7.65008C6.53957 7.71174 6.62321 7.74637 6.71041 7.74637C6.79762 7.74637 6.88125 7.71174 6.94291 7.65008C7.00458 7.58841 7.03921 7.50476 7.03921 7.41755V7.08875Z" fill="#B5854B" stroke="#B5854B" stroke-width="0.2"/>
<path d="M6.71066 8.41129C6.62345 8.41129 6.53982 8.44594 6.47815 8.5076C6.41649 8.56927 6.38184 8.6529 6.38184 8.74011V9.06891C6.38184 9.15611 6.41649 9.23976 6.47815 9.30143C6.53982 9.36309 6.62345 9.39773 6.71066 9.39773C6.79786 9.39773 6.88149 9.36309 6.94316 9.30143C7.00482 9.23976 7.03946 9.15611 7.03946 9.06891V8.74011C7.03946 8.6529 7.00482 8.56927 6.94316 8.5076C6.88149 8.44594 6.79786 8.41129 6.71066 8.41129Z" fill="#B5854B" stroke="#B5854B" stroke-width="0.2"/>
<path d="M5.55159 6.48775L5.32086 6.72264C5.28966 6.75327 5.26489 6.78981 5.24798 6.83013C5.23108 6.87045 5.22239 6.91374 5.22241 6.95746C5.22244 7.00118 5.2312 7.04446 5.24815 7.08477C5.26511 7.12507 5.28992 7.16158 5.32116 7.19217C5.35239 7.22277 5.38941 7.24683 5.43006 7.26294C5.4707 7.27905 5.51416 7.28689 5.55787 7.286C5.60159 7.28512 5.64467 7.27554 5.68463 7.2578C5.72459 7.24006 5.76063 7.21452 5.79061 7.18269L6.02132 6.94782C6.08034 6.88515 6.11244 6.80184 6.1107 6.71577C6.10896 6.62969 6.07352 6.54772 6.01202 6.48748C5.95051 6.42724 5.86784 6.39353 5.78175 6.39359C5.69566 6.39364 5.61302 6.42744 5.55159 6.48775Z" fill="#B5854B" stroke="#B5854B" stroke-width="0.2"/>
<path d="M4.40364 7.66345L4.17292 7.89833C4.14172 7.92897 4.11694 7.9655 4.10003 8.00583C4.08313 8.04615 4.07444 8.08943 4.07446 8.13316C4.07449 8.17688 4.08324 8.22016 4.10019 8.26046C4.11715 8.30076 4.14197 8.33728 4.17321 8.36787C4.20444 8.39846 4.24146 8.42253 4.28211 8.43864C4.32276 8.45475 4.3662 8.46258 4.40991 8.4617C4.45363 8.46082 4.49673 8.45124 4.53669 8.4335C4.57666 8.41576 4.61267 8.39021 4.64265 8.35838L4.87337 8.12352C4.93239 8.06085 4.96448 7.97754 4.96274 7.89146C4.961 7.80539 4.92558 7.72342 4.86407 7.66318C4.80257 7.60294 4.71988 7.56923 4.63379 7.56928C4.5477 7.56933 4.46507 7.60314 4.40364 7.66345Z" fill="#B5854B" stroke="#B5854B" stroke-width="0.2"/>
<path d="M7.40008 6.4836C7.36946 6.51415 7.34515 6.55043 7.32857 6.59038C7.312 6.63032 7.30347 6.67315 7.30347 6.7164C7.30347 6.75965 7.312 6.80247 7.32857 6.84242C7.34515 6.88237 7.36946 6.91865 7.40008 6.9492L7.63079 7.18406C7.69222 7.24437 7.77486 7.2782 7.86095 7.27825C7.94704 7.2783 8.02971 7.24457 8.09122 7.18433C8.15272 7.12409 8.18816 7.04214 8.1899 6.95607C8.19164 6.87 8.15954 6.78668 8.10052 6.72401L7.86981 6.48915C7.83926 6.45853 7.80298 6.43422 7.76303 6.41764C7.72308 6.40106 7.68026 6.39253 7.63701 6.39253C7.59376 6.39253 7.55093 6.40106 7.51099 6.41764C7.47104 6.43422 7.43476 6.45853 7.40421 6.48915L7.40008 6.4836Z" fill="#B5854B" stroke="#B5854B" stroke-width="0.2"/>
<path d="M8.5467 8.12352L8.77744 8.35838C8.80741 8.39021 8.84343 8.41576 8.88339 8.4335C8.92335 8.45124 8.96643 8.46082 9.01015 8.4617C9.05386 8.46258 9.09732 8.45475 9.13796 8.43864C9.17861 8.42253 9.21563 8.39846 9.24687 8.36787C9.2781 8.33728 9.30294 8.30076 9.31989 8.26046C9.33684 8.22016 9.34558 8.17688 9.34561 8.13316C9.34564 8.08943 9.33694 8.04615 9.32004 8.00583C9.30313 7.9655 9.27836 7.92897 9.24716 7.89833L9.01643 7.66347C8.955 7.60316 8.87236 7.56933 8.78627 7.56928C8.70018 7.56923 8.61751 7.60294 8.556 7.66318C8.4945 7.72342 8.45908 7.80539 8.45734 7.89146C8.4556 7.97754 8.48768 8.06085 8.5467 8.12352Z" fill="#B5854B" stroke="#B5854B" stroke-width="0.2"/>
</svg>
