<svg width="24" height="24" viewBox="0 0 24 24" fill="none" xmlns="http://www.w3.org/2000/svg">
<path d="M2.87988 5.28V21.4752C2.87988 22.1808 3.47364 23.04 4.20468 23.04H20.1493C20.8784 23.04 21.5999 22.1808 21.5999 21.4752V5.28H2.87988ZM12.2207 18.1325C9.40788 18.1325 7.1274 15.9274 7.1274 13.2062C7.1274 10.4851 9.40788 8.28 12.2207 8.28C15.0335 8.28 17.314 10.4851 17.314 13.2062C17.314 15.9278 15.0335 18.1325 12.2207 18.1325ZM20.1493 0.48H4.20468C3.47364 0.48 2.87988 0.97584 2.87988 1.6824V4.32H21.5999V1.6824C21.5999 0.97584 20.8784 0.48 20.1493 0.48ZM9.11988 3.36H3.83988V1.44H9.11988V3.36ZM18.31 3.2256C17.7104 3.2256 17.2261 2.75568 17.2261 2.17536C17.2261 1.596 17.7104 1.12608 18.31 1.12608C18.9095 1.12608 19.3952 1.596 19.3952 2.17536C19.3948 2.7552 18.9095 3.2256 18.31 3.2256Z" fill="#B5854B"/>
</svg>
