<svg width="22" height="22" viewBox="0 0 22 22" fill="none" xmlns="http://www.w3.org/2000/svg">
<g clip-path="url(#clip0_361_880)">
<path d="M15.3644 9.62242C15.8161 9.62366 16.2635 9.53528 16.6808 9.3624C17.0982 9.18951 17.477 8.93556 17.7955 8.61524L21.1041 5.30879C21.3658 5.04711 21.3899 4.62129 21.1406 4.34672C21.0781 4.27774 21.0021 4.22218 20.9175 4.18343C20.8328 4.14468 20.7411 4.12354 20.648 4.12129C20.5549 4.11904 20.4623 4.13573 20.3759 4.17034C20.2894 4.20496 20.2109 4.25678 20.1451 4.32266L17.1961 7.26945C17.0971 7.36835 16.9629 7.4239 16.8229 7.4239C16.683 7.4239 16.5488 7.36835 16.4497 7.26945C16.2439 7.06406 16.2551 6.71688 16.4605 6.51149L19.3965 3.57543C19.4624 3.50961 19.5141 3.43112 19.5487 3.3447C19.5833 3.25828 19.5999 3.16575 19.5977 3.0727C19.5954 2.97965 19.5743 2.88803 19.5356 2.80338C19.4969 2.71874 19.4414 2.64283 19.3725 2.58027C19.2481 2.46742 19.0858 2.40533 18.9179 2.40625C18.7275 2.40638 18.545 2.48211 18.4104 2.6168L15.4769 5.54984C15.3779 5.64874 15.2437 5.70429 15.1037 5.70429C14.9638 5.70429 14.8296 5.64874 14.7306 5.54984C14.5252 5.34445 14.5359 4.99727 14.7413 4.79188L17.6774 1.85668C17.7432 1.79086 17.7949 1.71237 17.8295 1.62595C17.8641 1.53953 17.8808 1.447 17.8785 1.35395C17.8762 1.2609 17.8551 1.16928 17.8164 1.08463C17.7777 0.999987 17.7222 0.924084 17.6533 0.861524C17.5289 0.748672 17.3667 0.686576 17.1987 0.687501C17.0083 0.687726 16.8258 0.763445 16.6912 0.898048L13.3848 4.20449C13.0644 4.52305 12.8105 4.90199 12.6376 5.31939C12.4647 5.73678 12.3763 6.18432 12.3776 6.6361V6.98973C12.3777 7.08014 12.3599 7.16968 12.3253 7.25322C12.2907 7.33676 12.24 7.41265 12.1761 7.47656L10.646 9.00711C10.63 9.02309 10.611 9.03577 10.5902 9.04442C10.5693 9.05307 10.5469 9.05752 10.5244 9.05752C10.5018 9.05752 10.4794 9.05307 10.4585 9.04442C10.4377 9.03577 10.4187 9.02309 10.4027 9.00711L2.95712 1.56106C2.82862 1.4324 2.65438 1.3599 2.47254 1.35942C2.2907 1.35893 2.11608 1.43051 1.98689 1.55848C1.33591 2.20344 0.988296 3.11395 0.988296 4.19117C0.983999 5.97008 1.919 8.01539 3.42849 9.52274L7.10017 13.1944C7.62203 13.7152 8.32915 14.0077 9.06642 14.0078C9.30146 14.0079 9.53554 13.9779 9.76294 13.9184C9.82004 13.9035 9.8788 13.8958 9.93783 13.8957C10.1104 13.8957 10.2766 13.9609 10.4032 14.0783L10.8926 14.5303C11.0188 14.6593 11.0897 14.8324 11.0902 15.0129V15.2509C11.089 15.7921 11.3017 16.3118 11.6819 16.6968L15.5513 20.6314L15.5551 20.6357C15.9846 21.0651 16.567 21.3064 17.1743 21.3063C17.7817 21.3063 18.3641 21.065 18.7935 20.6355C19.2229 20.2061 19.4641 19.6236 19.464 19.0163C19.464 18.409 19.2227 17.8266 18.7933 17.3972L12.9933 11.5973C12.9774 11.5813 12.9647 11.5623 12.956 11.5415C12.9474 11.5206 12.9429 11.4983 12.9429 11.4757C12.9429 11.4531 12.9474 11.4307 12.956 11.4098C12.9647 11.389 12.9774 11.37 12.9933 11.3541L14.5235 9.82395C14.5873 9.76005 14.6631 9.70936 14.7466 9.67478C14.8301 9.6402 14.9195 9.62241 15.0099 9.62242H15.3644Z" fill="#B5854B"/>
<path d="M9.06633 15.3828C7.96561 15.3805 6.91018 14.9444 6.12898 14.1689L5.53344 13.5734C5.469 13.5091 5.38169 13.473 5.29066 13.473C5.19964 13.473 5.11233 13.5091 5.04789 13.5734L1.39555 17.2068C0.74457 17.8578 0.512109 18.816 0.834374 19.7545C0.852411 19.8073 0.873796 19.859 0.898398 19.9091C1.33195 20.7969 2.17328 21.3125 3.09367 21.3125C3.41019 21.3133 3.72373 21.2512 4.0161 21.13C4.30848 21.0087 4.57389 20.8307 4.79695 20.6061L9.66789 15.712C9.68839 15.691 9.70409 15.6659 9.71389 15.6383C9.72368 15.6107 9.72734 15.5813 9.72461 15.5521V15.5409C9.7227 15.5141 9.71538 15.488 9.7031 15.4641C9.69082 15.4402 9.67383 15.4191 9.65315 15.4019C9.63247 15.3848 9.60853 15.372 9.58278 15.3644C9.55703 15.3567 9.53 15.3544 9.50332 15.3575C9.3582 15.3736 9.21234 15.382 9.06633 15.3828Z" fill="#B5854B"/>
</g>
<defs>
<clipPath id="clip0_361_880">
<rect width="22" height="22" fill="white"/>
</clipPath>
</defs>
</svg>
