<svg width="18" height="22" viewBox="0 0 18 22" fill="none" xmlns="http://www.w3.org/2000/svg">
<g clip-path="url(#clip0_361_903)">
<path d="M11.75 4.125C12.8891 4.125 13.8125 3.2016 13.8125 2.0625C13.8125 0.923398 12.8891 0 11.75 0C10.6109 0 9.6875 0.923398 9.6875 2.0625C9.6875 3.2016 10.6109 4.125 11.75 4.125ZM4.94762 13.6413L4.31168 15.1246H1.4375C0.678242 15.1246 0.0625 15.7403 0.0625 16.4996C0.0625 17.2588 0.678242 17.8746 1.4375 17.8746H4.76543C5.59258 17.8746 6.33723 17.383 6.66078 16.6246L7.03848 15.7429L6.58 15.4722C5.83578 15.0326 5.28836 14.3821 4.94762 13.6413ZM16.5625 9.62457H14.6706L13.5508 7.33648C13.0137 6.23863 12.0276 5.43598 10.8962 5.14766L7.84199 4.2393C6.62598 3.94711 5.35969 4.21566 4.3684 4.97578L2.66383 6.28246C2.06098 6.74437 1.94668 7.60719 2.40945 8.21004C2.87223 8.81289 3.73461 8.9259 4.33703 8.46441L6.04246 7.15773C6.37203 6.90465 6.79184 6.81398 7.12828 6.89391L7.75992 7.08168L6.15031 10.8367C5.60805 12.1034 6.09402 13.5871 7.28039 14.2875L10.9319 16.4433L9.75152 20.2129C9.52465 20.9374 9.92813 21.7087 10.6526 21.9355C10.7896 21.9785 10.928 21.9991 11.0642 21.9991C11.649 21.9991 12.1913 21.6223 12.3756 21.0345L13.7352 16.6921C13.9891 15.7996 13.611 14.841 12.8053 14.355L10.1739 12.8021L11.5193 9.43851L12.3902 11.2187C12.734 11.9208 13.461 12.3741 14.2426 12.3741H16.5625C17.3218 12.3741 17.9375 11.7584 17.9375 10.9991C17.9375 10.2399 17.3218 9.62457 16.5625 9.62457Z" fill="#B5854B"/>
</g>
<defs>
<clipPath id="clip0_361_903">
<rect width="17.875" height="22" fill="white" transform="translate(0.0625)"/>
</clipPath>
</defs>
</svg>
